<svg xmlns="http://www.w3.org/2000/svg" xmlns:xlink="http://www.w3.org/1999/xlink" viewBox="0 0 156.61 196.51"><defs><style>.cls-1{fill:none;}.cls-2{clip-path:url(#clip-path);}.cls-3{fill:#81dbd8;fill-rule:evenodd;}.cls-4{fill:#fff;}</style><clipPath id="clip-path" transform="translate(0 -0.1)"><rect class="cls-1" x="59.47" width="78.75" height="196.5"/></clipPath></defs><g id="Layer_2" data-name="Layer 2"><g id="Layer_2-2" data-name="Layer 2"><g class="cls-2"><path class="cls-3" d="M96.57.1c1,.24,2,.52,2.94.73a28.7,28.7,0,0,1,10.65,4.84,61.14,61.14,0,0,1,7.91,6.24,33.55,33.55,0,0,1,6.58,9.73,1.5,1.5,0,0,1-.71,2.26Q118.1,27.43,112.26,31c-1.56.94-2.14.78-3.11-.77a19.36,19.36,0,0,0-4.53-5.26,13.94,13.94,0,0,0-7.33-2.68,11.45,11.45,0,0,0-6.06.87A9.89,9.89,0,0,0,88,25.53c-.85.93-1.7,1.85-2.53,2.79A2,2,0,0,1,83,28.9c-.92-.36-1.8-.78-2.71-1.18L69.61,23.1a8.13,8.13,0,0,1-1.1-.56.86.86,0,0,1-.41-1.11c.42-1,.83-2,1.33-3a36.14,36.14,0,0,1,16-15.65c1.75-.89,3.59-1.62,5.38-2.43A2.74,2.74,0,0,0,91.32.1Z" transform="translate(0 -0.1)"/><path class="cls-3" d="M95.32,196.6,93,196.32a33.07,33.07,0,0,1-12.26-3.95,39.45,39.45,0,0,1-4.58-3.51c-1.17-.93-2.29-1.93-3.44-2.88a10.07,10.07,0,0,1-3.14-5.15,1.1,1.1,0,0,1,.84-1.52q7-2.31,14.09-4.59a2.8,2.8,0,0,1,2.27.12,2.25,2.25,0,0,1,1,.91,6.09,6.09,0,0,0,4.6,3.44,15.73,15.73,0,0,0,6.48.27,11.67,11.67,0,0,0,3.87-1.79,11.76,11.76,0,0,1,1.65-.95,2.19,2.19,0,0,1,2.13.29l9,5.55c1.09.68,2.2,1.34,3.28,2.05s1.06,1,.34,2a25.37,25.37,0,0,1-8.31,7.07,18.69,18.69,0,0,1-5.33,2.26c-1.45.27-2.94.31-4.41.46l-1.78.19Z" transform="translate(0 -0.1)"/><path class="cls-3" d="M59.72,53.3c.25-.9.51-1.8.75-2.7s.41-1.71.68-2.54c.49-1.55,1.26-2.06,2.83-1.75s2.92.77,4.38,1.12c2.89.7,5.79,1.36,8.68,2l.37.09c.84.21,1,.47,1,1.35,0,1.14-.13,2.29-.2,3.44s-.12,2-.19,3.06a5.28,5.28,0,0,1-.16,1A1.38,1.38,0,0,1,76.4,59.5c-3.59-.1-7.19-.14-10.77-.4a13.3,13.3,0,0,1-5.73-1.46.52.52,0,0,0-.18,0Z" transform="translate(0 -0.1)"/><path class="cls-3" d="M138.19,84.64c-.29,1.09-.58,2.18-.86,3.27-.39,1.55-.76,3.09-1.14,4.64,0,.14-.07.27-.12.45l-3.23-.35-10.69-1.3a2.84,2.84,0,0,1-2.61-1.55,3.41,3.41,0,0,1-.26-1.25q.06-3,.19-6a1.24,1.24,0,0,1,1.42-1.32c3.47.06,7,.15,10.43.23.81,0,1.62,0,2.43,0a1.68,1.68,0,0,0,.74-.14,3.38,3.38,0,0,1,3.44.32,2.06,2.06,0,0,0,.26.12Z" transform="translate(0 -0.1)"/><path class="cls-3" d="M115.52,105.44c.22-1.08.43-2.16.67-3.23.29-1.39.6-2.78.91-4.16a1.19,1.19,0,0,1,1.6-1c4,1,7.93,2,11.89,2.94,1.09.28,2.16.63,3.23,1a1.71,1.71,0,0,1,1.23,2.18c-.35,2-.73,4.08-1.11,6.12-.22,1.19-.47,2.37-.71,3.56-.36,1.88-1.59,2.47-3.29,1.56q-4.11-2.23-8.2-4.49c-1.51-.82-3-1.64-4.52-2.48a10.46,10.46,0,0,1-1.08-.7A1.56,1.56,0,0,1,115.52,105.44Z" transform="translate(0 -0.1)"/><path class="cls-3" d="M66,96.62,62.21,83.9l4.55-.78,12.41-2.05a1.4,1.4,0,0,1,1.82,1l2.68,7c.35.92.21,1.3-.65,1.6L66.25,96.55Z" transform="translate(0 -0.1)"/><path class="cls-3" d="M85.93,95.19c.7,1.45,1.4,2.86,2.07,4.28s1.23,2.63,1.83,4a1.5,1.5,0,0,1-.54,1.85l-15.24,9-.21.1-5.1-11.28Z" transform="translate(0 -0.1)"/><path class="cls-3" d="M60,64.72l17.72.69c.07.77.13,1.52.2,2.28a30.44,30.44,0,0,0,1,6.71c.25.78,0,1.23-.84,1.41a60.76,60.76,0,0,1-14.76,1.88h-.43l-2.2-.11C60.46,73.3,60.24,69.05,60,64.72Z" transform="translate(0 -0.1)"/><path class="cls-3" d="M128.59,144.47c-.19,1.84-.38,3.62-.56,5.4-.12,1.14-.23,2.28-.34,3.42-.12,1.39-.72,1.87-2.08,1.63l-14-2.51c-1.12-.2-1.55-.72-1.45-1.85.23-2.7.49-5.4.76-8.1a1.22,1.22,0,0,1,1.4-1.16l10.9,1.21c1.29.14,2.59.27,3.88.42C128.12,143.05,128.62,143.58,128.59,144.47Z" transform="translate(0 -0.1)"/><path class="cls-3" d="M78.48,43.21l-2.85-.71C72.8,41.78,70,41,67.13,40.35a20.37,20.37,0,0,0-2.35-.28h-.34c-1.3,0-1.69-.53-1.36-1.81.75-2.95,1.52-5.89,2.29-8.83a1.85,1.85,0,0,1,2-1.19,47.4,47.4,0,0,1,6.82,2.55c2.16.85,4.29,1.76,6.42,2.66,1.45.62,1.53.92,1.1,2.43-.51,1.84-.94,3.7-1.41,5.55-.08.31-.16.62-.27.92C79.81,43,79.42,43.23,78.48,43.21Z" transform="translate(0 -0.1)"/><path class="cls-3" d="M73.59,135.24c1.44.25,2.85.5,4.26.72l8.43,1.32A1.8,1.8,0,0,1,88,139.53c-.27,2.45-.56,4.91-.84,7.37-.13,1.06-.43,1.3-1.5,1.25l-14.42-.67-.43,0a1,1,0,0,1-.92-1.35c.4-1.3.87-2.59,1.31-3.89.76-2.23,1.51-4.47,2.26-6.7C73.5,135.43,73.54,135.36,73.59,135.24Z" transform="translate(0 -0.1)"/><path class="cls-3" d="M118.39,53.54a1.49,1.49,0,0,1,.88-1.57,19.18,19.18,0,0,1,6.91-2.74l.42-.06a8,8,0,0,0,3-.76,8.17,8.17,0,0,1,4.21-.84,1.06,1.06,0,0,1,.73.56,15.9,15.9,0,0,1,.87,2.66c.37,1.86.65,3.74,1,5.62a1.86,1.86,0,0,1-1.41,2.24c-1,.27-2.05.41-3.09.59l-7.75,1.27a6.09,6.09,0,0,0-2.15,1,3.16,3.16,0,0,1-1.32.46,1.22,1.22,0,0,1-1.34-1.15c-.27-2-.51-4-.76-6C118.48,54.43,118.44,54.05,118.39,53.54Z" transform="translate(0 -0.1)"/><path class="cls-3" d="M126.8,29.65a1.29,1.29,0,0,1,1.26.87c1.15,2.82,2.35,5.62,3.51,8.43a.66.66,0,0,1-.07.53,4.88,4.88,0,0,1-2.26,1.68c-2.88,1.12-5.75,2.3-8.6,3.5a10,10,0,0,0-1.61,1c-.36.23-.67.54-1,.74a.94.94,0,0,1-1.35-.39,3.55,3.55,0,0,1-.28-.55c-1-2.46-2-4.91-3-7.36-.4-1-.22-1.48.75-2Q120,33,126,29.93A4.87,4.87,0,0,1,126.8,29.65Z" transform="translate(0 -0.1)"/><path class="cls-3" d="M120.13,71.48c0-.94,0-1.88,0-2.82A1.58,1.58,0,0,1,121.5,67c3.15-.61,6.3-1.2,9.44-1.84,1-.2,2-.53,3-.8l.13,0c2.09-.65,3.32.21,3.45,2.4s.25,4.24.37,6.35a3.85,3.85,0,0,1,0,.48c-.16,1.3-.73,1.9-2,2s-2.77,0-4.15,0c-.33,0-.77-.26-1,.28,0,.06-.26,0-.4,0-1.79-.09-3.58-.22-5.38-.26-.94,0-1.89.14-2.84.21l-.29,0c-1.17.08-1.73-.45-1.7-1.62,0-.46,0-.92,0-1.38V71.48Z" transform="translate(0 -0.1)"/><path class="cls-3" d="M108.57,161.23c.14-1.21.25-2.44.42-3.65s.68-1.48,1.76-1.25c3,.64,6,1.33,9,2,2.08.45,4.17.86,6.25,1.3a5.35,5.35,0,0,1,.68.21.79.79,0,0,1,.56.86c-.13,1-.27,2.05-.44,3.07a13.19,13.19,0,0,1-.34,1.54c-.51,1.75-1.47,2.4-3.26,2-2-.41-3.92-.92-5.88-1.41-2.26-.57-4.52-1.17-6.78-1.75-1.47-.37-1.85-.86-1.85-2.39v-.52Z" transform="translate(0 -0.1)"/><path class="cls-3" d="M115.58,65.88c0,.45,0,.9,0,1.34.08.94.22,1.87.29,2.81a8,8,0,0,1,0,1.62c-.13,1.36-1,1.76-2.1,1-1.48-1-3-1.94-4.42-2.93-2.41-1.63-4.79-3.3-7.21-4.92A2.56,2.56,0,0,1,101,62.89c-.19-1.77-.35-3.55-.47-5.33-.07-1.17.87-1.74,1.94-1.2q4.33,2.2,8.65,4.43c1.15.59,2.27,1.23,3.43,1.78a1.78,1.78,0,0,1,1,1.64c0,.55,0,1.11,0,1.67Z" transform="translate(0 -0.1)"/><path class="cls-3" d="M76.08,160.45l-7-.26a1.31,1.31,0,0,1-1.21-1.34c.23-1.75.49-3.5.81-5.24a1.55,1.55,0,0,1,.64-.88,5.18,5.18,0,0,1,2.65-.77c2.43-.14,4.75.48,7.11.8,1.87.24,3.73.58,5.6.9,1.25.21,1.29.24,1.39,1.49a10,10,0,0,1-.32,3.74,1.82,1.82,0,0,1-.56.85,3.37,3.37,0,0,1-2.2.78H76.08Z" transform="translate(0 -0.1)"/><path class="cls-3" d="M67.77,174.73c-.08-1.62-.18-3.18-.21-4.74,0-1.1,0-2.2.08-3.3.07-1.26.5-1.68,1.75-1.72,1.09,0,2.19,0,3.29,0l10.73-.07A1.38,1.38,0,0,1,85,166a8,8,0,0,1,.21,1.78c0,.53,0,1.05,0,1.58s-.59,1.12-1.29,1.31c-1.75.46-3.5.92-5.26,1.36l-10.48,2.65A3.73,3.73,0,0,1,67.77,174.73Z" transform="translate(0 -0.1)"/><path class="cls-3" d="M102.46,72.13l5.16,2.62,5.91,3a9.58,9.58,0,0,1,1.19.71,3.13,3.13,0,0,1,1.34,3c-.15,1.68-.3,3.37-.49,5.05a1.31,1.31,0,0,1-1.64,1.14,11,11,0,0,1-4-1.64c-2.18-1.43-4.38-2.84-6.57-4.25a3.11,3.11,0,0,1-1.47-3.1,32.13,32.13,0,0,0,0-3.54A7,7,0,0,1,102.46,72.13Z" transform="translate(0 -0.1)"/><path class="cls-3" d="M82.74,60.87c0-1.14,0-2.15,0-3.16,0-1.31.12-2.62.05-3.91a6,6,0,0,1,2-5c2.75-2.49,5.56-4.91,8.34-7.36a1.39,1.39,0,0,1,.19-.15c1-.67,1.51-.5,1.69.68.22,1.4.34,2.82.48,4.23.09.86.15,1.72.19,2.58a2.28,2.28,0,0,1-.8,1.92c-2.27,2-4.54,4-6.84,6-1.57,1.33-3.19,2.59-4.78,3.88C83.15,60.62,83,60.69,82.74,60.87Z" transform="translate(0 -0.1)"/><path class="cls-3" d="M121.21,181.65l-4.2-2.8a52.5,52.5,0,0,0-8.41-4.78c-1.34-.58-1.84-1.66-1.62-3.32a7.27,7.27,0,0,1,.41-1.52,1.61,1.61,0,0,1,2.17-.95c1.55.4,3.09.86,4.63,1.3l8.92,2.58c1.81.52,2.19,1.21,1.6,3-.43,1.34-.91,2.66-1.45,3.94A6.54,6.54,0,0,1,121.21,181.65Z" transform="translate(0 -0.1)"/><path class="cls-3" d="M97.2,65.21a8.31,8.31,0,0,1-2.77,3.38C91.58,70.78,88.78,73,86,75.27a6,6,0,0,1-.92.59c-.58.27-1,.13-1.17-.48a14.4,14.4,0,0,1-.42-1.95c-.2-1.25-.4-2.49-.56-3.74a2,2,0,0,1,.7-1.84l10.85-9.51a4.3,4.3,0,0,1,.84-.54c.52-.25.88-.14,1,.42a9.24,9.24,0,0,1,.32,1.88c.1,1.36.14,2.74.24,4.1A4.93,4.93,0,0,0,97.2,65.21Z" transform="translate(0 -0.1)"/><path class="cls-3" d="M99.51,40.06a10,10,0,0,1,3.91,1.47c1.32.73,2.62,1.5,4,2.13a19.58,19.58,0,0,0,2.65.74,1,1,0,0,1,.55.32,19.1,19.1,0,0,1,2.59,5.09,22.2,22.2,0,0,1,.36,2.31c.07.45.16.9.25,1.35s.24,1,.3,1.55-.12.8-.66.83a1.84,1.84,0,0,1-1-.16c-3.93-2-7.85-4-11.78-6.09a1.28,1.28,0,0,1-.73-1.14C99.84,45.67,99.67,42.89,99.51,40.06Z" transform="translate(0 -0.1)"/><path class="cls-3" d="M86.35,84.47a6,6,0,0,1,2.51-5c1.39-1.11,2.81-2.18,4.19-3.31.81-.67,1.54-1.43,2.33-2.12a4.34,4.34,0,0,1,1-.67c.62-.29,1-.15,1.25.5a8.16,8.16,0,0,1,.4,1.76c.15,1.2.27,2.41.35,3.62a3.65,3.65,0,0,1-1.28,3C95.76,83.52,94.35,84.73,93,86c-1,.92-2.06,1.86-3.1,2.77-1.24,1.07-1.79,1-2.48-.51A9.54,9.54,0,0,1,86.35,84.47Z" transform="translate(0 -0.1)"/><path class="cls-3" d="M102.66,94.09c0-1.38,0-2.77,0-4.16a1.91,1.91,0,0,1,.18-.73.79.79,0,0,1,1.1-.46,2.33,2.33,0,0,1,.58.32c2.67,2,5.32,4,8,5.89a2.31,2.31,0,0,1,1,2.37c-.16,1.3-.43,2.58-.66,3.87a12.13,12.13,0,0,1-.26,1.31.91.91,0,0,1-1.39.6,3,3,0,0,1-.49-.29c-2.38-1.82-4.75-3.64-7.14-5.44a1.9,1.9,0,0,1-.79-1.46c0-.6-.09-1.21-.13-1.81Z" transform="translate(0 -0.1)"/><path class="cls-3" d="M93.65,101.88l-2.42-4.69c-.24-.47-.49-.93-.72-1.4a1.39,1.39,0,0,1,.55-2.05l6-3.86.08,0c1-.58,1.49-.35,1.61.78.19,1.79.34,3.59.5,5.39a1.65,1.65,0,0,1-.6,1.43Z" transform="translate(0 -0.1)"/><path class="cls-3" d="M85.93,40.66c-.31,0-.62-.35-.5-.93.8-3.83,1.86-7.55,4.9-10.29a12.11,12.11,0,0,1,1.8-1.33c.88-.52,1.56-.33,1.93.62s.59,2,.87,3a.45.45,0,0,1,0,.28,5.22,5.22,0,0,1-1.66,2.1,20.43,20.43,0,0,0-5.33,5.36A2.28,2.28,0,0,1,85.93,40.66Z" transform="translate(0 -0.1)"/><path class="cls-3" d="M108.38,38.3a14.05,14.05,0,0,1-1.67-.77c-2.41-1.49-4.8-3-7.2-4.51a1.61,1.61,0,0,1-.87-1.52c0-1.44,0-2.87,0-4.31a2.09,2.09,0,0,1,0-.34,4.1,4.1,0,0,1,2.51.71,22.17,22.17,0,0,1,7.2,9.48,4.85,4.85,0,0,1,.15,1.16Z" transform="translate(0 -0.1)"/><path class="cls-3" d="M95.76,152.87a5.14,5.14,0,0,1-5.24-3.74,9.4,9.4,0,0,1,.18-4.41,1.44,1.44,0,0,1,2.33-1c2.46,1.51,4,3.94,3,7.11A13.94,13.94,0,0,0,95.76,152.87Z" transform="translate(0 -0.1)"/><path class="cls-3" d="M106.38,145.27c0,2.18,0,4.25,0,6.32a.52.52,0,0,1-.21.37c-1,.54-2,1.06-3,1.58a2.84,2.84,0,0,1-.58.2,1.36,1.36,0,0,1-1.86-1.33c0-1.2.08-2.41.14-3.62a1.71,1.71,0,0,1,.07-.61c.14-.29.28-.69.52-.8C103,146.65,104.66,146,106.38,145.27Z" transform="translate(0 -0.1)"/><path class="cls-3" d="M94.69,161.09a12.61,12.61,0,0,1-.22,1.5.81.81,0,0,1-1.14.69,6.91,6.91,0,0,1-3.76-2.47,3.35,3.35,0,0,1,.43-4.25,1.33,1.33,0,0,1,2,0c.69.67,1.33,1.38,2,2.1A3.12,3.12,0,0,1,94.69,161.09Z" transform="translate(0 -0.1)"/><path class="cls-3" d="M98.74,176a6.85,6.85,0,0,1-.61-3.34,4.8,4.8,0,0,1,1.67-2.82c.58-.47,1.2-.88,1.81-1.32a1.4,1.4,0,0,1,.3-.15c.8-.28,1.21,0,1.19.85a1.86,1.86,0,0,1-.07.52l-1.14,3.74a3,3,0,0,1-2,2.09C99.53,175.7,99.16,175.85,98.74,176Z" transform="translate(0 -0.1)"/><path class="cls-3" d="M92.39,174.8c-2.27-1.12-3.25-3.1-3.77-5.39a2.55,2.55,0,0,1,.82-2,.81.81,0,0,1,.51,0,4.48,4.48,0,0,1,3.41,4.26,1.87,1.87,0,0,1,0,.53C93,173.07,92.7,173.93,92.39,174.8Z" transform="translate(0 -0.1)"/><path class="cls-3" d="M104.68,160.16c.24,2-2.26,4-4,4a1.34,1.34,0,0,1-1.4-1.17,3,3,0,0,1,1.7-3.44,17.45,17.45,0,0,1,2.23-.81c1.15-.34,1.51,0,1.51,1.18Z" transform="translate(0 -0.1)"/></g><path class="cls-4" d="M74.28,114.28c.39-4.7,4.58-8.57,9.64-9.8,8.49-2.07,14,1.93,15.61,11.49,4.19-3.25,7.19-6.28,8.47-6.32.26,0,.52.23.56.84.07,1.1-7.39,5.28-8.88,8.44-1.79,3.79-2.48,13.36-9.58,17.18C81,141,74.57,132.41,73,129.49s-3.4-12.42-3.18-12.79C70.33,115.74,73.05,114.81,74.28,114.28Zm4.57,12c2.45,5.37,7.63,6.9,11.14,5.26,2.46-1.15,4.38-3.81,4.53-8.32a26.67,26.67,0,0,1-6,3.88c-3.26,1.38-6.81,1.34-10.39-3.37A10.14,10.14,0,0,0,78.85,126.24Zm15-9.07c-1.71-7.16-6.39-9.36-10.29-8.26a7.49,7.49,0,0,0-5,4.73l.13.34a7.72,7.72,0,0,0,0,5.39c1.26,3,4.23,5.5,9.53,3.52a33.1,33.1,0,0,0,6.08-3.26A19.87,19.87,0,0,0,93.89,117.17Z" transform="translate(0 -0.1)"/><path class="cls-4" d="M101.13,90.39c-.23-2,4.38-4.1,4.85-4.24.33,0,2.27.06,4,.26s3.55.58,3.55.94a80.17,80.17,0,0,0-3.65,28.09c.17,4.46.89,7.57,2.3,7.46,2.27-.19,5.46-5.12,5.69-5.11.46,0,.92.15.88.77-.16,2.39-2.39,9.22-8.25,10.16-4.08.66-5.92.38-7.14-9-.3-2.33.42-20.29,0-27.08C103.33,91.82,101.18,90.76,101.13,90.39Z" transform="translate(0 -0.1)"/><path class="cls-4" d="M144.51,114.37c-1.29,3.22-5.82,7.52-5.82,7.52a51.47,51.47,0,0,0-12.94-1.61c.42,3.84,3.27,5.13,6.35,5.67,5.74,1,11.6.15,13.51-1.59.11-.24,1.61.24,2.38.59.33.15.55.25.53.29a38.8,38.8,0,0,1-20.17,3.22c-5.93-.58-11.14-3.16-10.73-11.66.11-2.35,6.08-15,18.9-10.65C141.47,107.84,145.78,111.23,144.51,114.37Zm-11.67,5.35c.35.08,2-3.92,3.42-8.87a2.82,2.82,0,0,0-2-3.62c-2.77-.85-7.05,1.67-8.36,10a5.09,5.09,0,0,0-.06,1.89A46.52,46.52,0,0,1,132.84,119.72Z" transform="translate(0 -0.1)"/><path class="cls-4" d="M141.36,129.91a1.09,1.09,0,0,1-1.13,1.13,1.1,1.1,0,0,1-1.16-1.13,1.12,1.12,0,0,1,1.16-1.14A1.1,1.1,0,0,1,141.36,129.91Zm-.74,3.1c.3,0,.54.05.54.18a.87.87,0,0,1-.14.31,15.35,15.35,0,0,0-.44,4.09c0,2.66.32,3.5.76,3.5.63,0,.65-1.23,1.32-1.23,0,.3-1.2,3.45-2.18,3.45s-1.15-2.18-1.15-4.12c0-3.84,0-3.15,0-5.9,0-.07,0-.16.07-.16S140.16,133,140.62,133Z" transform="translate(0 -0.1)"/><path class="cls-4" d="M142.29,133.08c0-.16.76-.3,1.3-.3.25,0,.43,0,.43.11s-.39,2.41-.51,5c.51-2.24,1.74-4.4,2.23-4.4.09-.11.35-.21.95-.21.32,0,.62.05.62.21,0-.14-.42.84-.42,3.61,0,4,.33,4.47.77,4.47s.55-1.34.74-1.34.3.16.3.16-.81,3-1.9,3-1.39-3-1.39-4.16c0-.84.1-3.43.23-4.86-.69.78-1.52,4.69-1.52,7.08a4.74,4.74,0,0,0,.18,1.43c0,.19-.37.4-.83.4-1,0-1.27-1.92-1.27-4,0-2,.2-4.1.2-5.07v-.33C142.38,133.29,142.29,133.33,142.29,133.08Z" transform="translate(0 -0.1)"/><path class="cls-4" d="M151.29,133.13c.16-.68,0-.72.53-.72.31,0,.68.09.68.16a16.73,16.73,0,0,0-.4,2.66,24.24,24.24,0,0,0,.23,2.57c0,.19-.58.42-.69.42s-.93,0-.93-1a11.39,11.39,0,0,1,.23-2.34c0-.88-.11-1.64-.53-1.64s-1.18,1.18-1.18,4.49c0,2.92,1,3.8,2.06,3.8a2.44,2.44,0,0,0,2.36-2.29s.16-.07.23-.07.12,0,.12.18c-.35,2.27-1.9,3.91-3.45,3.91s-2.75-1.38-2.75-5c0-3.94,1.34-5.65,2.73-5.65A.77.77,0,0,1,151.29,133.13Z" transform="translate(0 -0.1)"/><path class="cls-4" d="M154.07,142.29a1,1,0,0,1-1-.79c0-1.18,1.5-2.08,2.52-2.08.44,0,1.06,0,1.06,1S155.09,142.29,154.07,142.29Z" transform="translate(0 -0.1)"/><path class="cls-4" d="M74.83,72.75c.48-5.82,2.26-17.43,2.43-18.31s5.83.17,10,1.57c2.61.88,4.57,2,4.36,2.68.29-.94-7.63,2.7-12.55,23.5-2.33,9.86-3.08,21-5.06,30.35-.21,1-2.12,1.34-4.13,1.14-3.69-.37-8.49-2.24-8.09-4.83.57-3.76,2.39-11.8,3.91-19.94,2.5-13.43.72-32.1-14.83-35.19C29.54,49.47,11.48,72.65,16.06,93.55c3.62,16.55,19.7,22.64,34.13,26.67,7,2,25.51,6.71,24.7,10-1.15,4.61-18,13.87-27.62,16.89C33.6,151.37,28,140.66,26.85,134.77c-.84-4.34.6-6.27,1.91-6.53.14,0,7,14.53,20.44,12,4-.77,13.17-6.19,12.55-8.76C58.6,118.45,11.1,129,1.91,99.2-7.74,67.89,20.7,41.92,51.84,48.88,63.48,51.49,74.5,59.9,74.83,72.75Z" transform="translate(0 -0.1)"/></g></g></svg>