<svg xmlns="http://www.w3.org/2000/svg" viewBox="0 0 1214.83 283"><defs><style>.cls-1{fill:#8cd2d2;}.cls-2{fill:#c5e7e7;}</style></defs><g id="Layer_2" data-name="Layer 2"><g id="Layer_1-2" data-name="Layer 1"><polygon class="cls-1" points="95.66 121.67 59.1 100.8 22.42 121.46 29.54 77.5 0 46.27 40.96 39.97 59.39 0 77.58 40.07 118.51 46.6 88.79 77.67 95.66 121.67"/><polygon class="cls-1" points="217.48 121.67 180.91 100.8 144.23 121.46 151.35 77.5 121.81 46.27 162.78 39.97 181.2 0 199.4 40.07 240.32 46.6 210.61 77.67 217.48 121.67"/><polygon class="cls-1" points="339.29 121.67 302.73 100.8 266.05 121.46 273.17 77.5 243.63 46.27 284.59 39.97 303.01 0 321.21 40.07 362.14 46.6 332.42 77.67 339.29 121.67"/><polygon class="cls-1" points="461.1 121.67 424.54 100.8 387.86 121.46 394.98 77.5 365.44 46.27 406.4 39.97 424.83 0 443.02 40.07 483.95 46.6 454.23 77.67 461.1 121.67"/><polygon class="cls-1" points="582.92 121.67 546.35 100.8 509.67 121.46 516.79 77.5 487.25 46.27 528.22 39.97 546.64 0 564.84 40.07 605.76 46.6 576.05 77.67 582.92 121.67"/><path class="cls-2" d="M668.41,16.82,680.28,43l1.55,3.43,3.72.59,27.74,4.43L692.8,72.83l-2.39,2.5.53,3.42,4.63,29.63L671.64,94.72l-3.45-2-3.46,2-24,13.53,4.8-29.61.55-3.42-2.38-2.51L623.33,51.15l27.76-4.27,3.72-.57,1.58-3.41,12-26.08m0-16.82L650,40l-41,6.3L638.61,77.5l-7.12,44,36.68-20.66,36.56,20.87-6.87-44L727.58,46.6l-40.93-6.53L668.45,0Z"/><path class="cls-2" d="M790.22,16.82,802.09,43l1.56,3.43,3.71.59,27.74,4.43L814.62,72.83l-2.4,2.5.54,3.42,4.62,29.63L793.45,94.72l-3.45-2-3.45,2-24,13.53,4.79-29.61.55-3.42-2.37-2.51L745.14,51.15l27.77-4.27,3.72-.57,1.57-3.41,12-26.08m0-16.82L771.84,40l-41,6.3L760.42,77.5l-7.12,44L790,100.8l36.56,20.87-6.87-44L849.39,46.6l-40.93-6.53L790.27,0Z"/><path class="cls-2" d="M912,16.82,923.9,43l1.56,3.43,3.71.59,27.75,4.43L936.43,72.83,934,75.33l.53,3.42,4.63,29.63L915.26,94.72l-3.44-2-3.46,2-24,13.53,4.79-29.61.56-3.42-2.38-2.51L867,51.15l27.77-4.27,3.72-.57L900,42.9l12-26.08M912.08,0,893.66,40l-41,6.3L882.23,77.5l-7.12,44,36.68-20.66,36.57,20.87-6.87-44L971.2,46.6l-40.92-6.53L912.08,0Z"/><path class="cls-2" d="M1033.85,16.82,1045.72,43l1.55,3.43L1051,47l27.74,4.43-20.49,21.42-2.39,2.5.54,3.42,4.62,29.63-23.93-13.66-3.45-2-3.46,2-24,13.53,4.8-29.61.55-3.42-2.38-2.51L988.77,51.15l27.76-4.27,3.72-.57,1.58-3.41,12-26.08m0-16.82-18.42,40-41,6.3,29.54,31.23-7.12,44,36.68-20.66,36.56,20.87-6.87-44L1093,46.6l-40.93-6.53L1033.89,0Z"/><polygon class="cls-1" points="95.66 283 59.1 262.13 22.42 282.8 29.54 238.83 0 207.6 40.96 201.3 59.39 161.33 77.58 201.4 118.51 207.94 88.79 239 95.66 283"/><polygon class="cls-1" points="217.48 283 180.91 262.13 144.23 282.8 151.35 238.83 121.81 207.6 162.78 201.3 181.2 161.33 199.4 201.4 240.32 207.94 210.61 239 217.48 283"/><polygon class="cls-1" points="339.29 283 302.73 262.13 266.05 282.8 273.17 238.83 243.63 207.6 284.59 201.3 303.01 161.33 321.21 201.4 362.14 207.94 332.42 239 339.29 283"/><polygon class="cls-1" points="461.1 283 424.54 262.13 387.86 282.8 394.98 238.83 365.44 207.6 406.4 201.3 424.83 161.33 443.02 201.4 483.95 207.94 454.23 239 461.1 283"/><polygon class="cls-1" points="582.92 283 546.35 262.13 509.67 282.8 516.79 238.83 487.25 207.6 528.22 201.3 546.64 161.33 564.84 201.4 605.76 207.94 576.05 239 582.92 283"/><path class="cls-2" d="M790.22,178.16l11.87,26.14,1.56,3.42,3.71.59,27.74,4.43-20.48,21.42-2.4,2.5.54,3.42,4.62,29.64-23.93-13.67-3.45-2L786.55,256l-24,13.53L767.33,240l.55-3.41L765.51,234l-20.37-21.53,27.77-4.27,3.72-.58,1.57-3.41,12-26.07m0-16.83-18.43,40-41,6.3,29.54,31.23-7.12,44L790,262.13,826.54,283l-6.87-44,29.72-31.06-40.93-6.54-18.19-40.07Z"/><path class="cls-2" d="M912,178.16,923.9,204.3l1.56,3.42,3.71.59,27.75,4.43-20.49,21.42-2.39,2.5.53,3.42,4.63,29.64-23.94-13.67-3.44-2L908.36,256l-24,13.53L889.14,240l.56-3.41L887.32,234,867,212.49l27.77-4.27,3.72-.58,1.57-3.41,12-26.07m.05-16.83-18.42,40-41,6.3,29.54,31.23-7.12,44,36.68-20.67L948.36,283l-6.87-44,29.71-31.06-40.92-6.54-18.2-40.07Z"/><path class="cls-2" d="M1033.85,178.16l11.87,26.14,1.55,3.42,3.72.59,27.74,4.43-20.49,21.42-2.39,2.5.54,3.42,4.62,29.64-23.93-13.67-3.45-2-3.46,1.94-24,13.53L1011,240l.55-3.41-2.38-2.52-20.36-21.53,27.76-4.27,3.72-.58,1.58-3.41,12-26.07m0-16.83-18.42,40-41,6.3,29.54,31.23-7.12,44,36.68-20.67L1070.17,283l-6.87-44L1093,207.94l-40.93-6.54-18.2-40.07Z"/><path class="cls-2" d="M1155.66,16.82,1167.53,43l1.56,3.43,3.71.59,27.74,4.43-20.48,21.42-2.39,2.5.53,3.42,4.62,29.63-23.93-13.66-3.45-2-3.45,2-24,13.53,4.79-29.61.55-3.42L1131,72.69l-20.37-21.54,27.77-4.27,3.72-.57,1.57-3.41,12-26.08m0-16.82-18.43,40-41,6.3,29.54,31.23-7.12,44,36.68-20.66L1192,121.67l-6.87-44,29.72-31.07-40.93-6.53L1155.71,0Z"/><path class="cls-2" d="M668.41,178.16l11.87,26.14,1.55,3.42,3.72.59,27.74,4.43L692.8,234.16l-2.39,2.5.53,3.42,4.63,29.64-23.93-13.67-3.45-2L664.73,256l-24,13.53,4.8-29.61.55-3.41L643.69,234l-20.36-21.53,27.76-4.27,3.72-.58,1.58-3.41,12-26.07m0-16.83L650,201.3l-41,6.3,29.54,31.23-7.12,44,36.68-20.67L704.73,283l-6.87-44,29.72-31.06-40.93-6.54-18.2-40.07Z"/><polygon class="cls-1" points="668.89 161.63 668.89 261.43 632.45 281.96 639.57 238 610.02 206.77 650.99 200.47 668.89 161.63"/><polygon class="cls-1" points="667.89 161.63 667.89 261.43 631.45 281.96 638.57 238 609.02 206.77 649.99 200.47 667.89 161.63"/></g></g></svg>