<svg xmlns="http://www.w3.org/2000/svg" viewBox="0 0 120.47 28.06"><defs><style>.cls-1{fill:#8cd2d2;}.cls-2{fill:#c5e7e7;}</style></defs><g id="Layer_2" data-name="Layer 2"><g id="Layer_1-2" data-name="Layer 1"><polygon class="cls-1" points="9.49 12.06 5.86 10 2.22 12.04 2.93 7.68 0 4.59 4.06 3.96 5.89 0 7.69 3.97 11.75 4.62 8.8 7.7 9.49 12.06"/><polygon class="cls-1" points="21.57 12.06 17.94 10 14.3 12.04 15.01 7.68 12.08 4.59 16.14 3.96 17.97 0 19.77 3.97 23.83 4.62 20.88 7.7 21.57 12.06"/><polygon class="cls-1" points="33.65 12.06 30.02 10 26.38 12.04 27.09 7.68 24.16 4.59 28.22 3.96 30.05 0 31.85 3.97 35.91 4.62 32.96 7.7 33.65 12.06"/><polygon class="cls-1" points="45.73 12.06 42.1 10 38.46 12.04 39.17 7.68 36.24 4.59 40.3 3.96 42.13 0 43.93 3.97 47.99 4.62 45.04 7.7 45.73 12.06"/><polygon class="cls-1" points="57.8 12.06 54.18 10 50.54 12.04 51.25 7.68 48.32 4.59 52.38 3.96 54.21 0 56.01 3.97 60.07 4.62 57.12 7.7 57.8 12.06"/><path class="cls-2" d="M66.28,1.8l1.13,2.48.16.37.4.06,2.65.43-2,2-.26.27.06.37.44,2.82-2.27-1.3-.37-.21-.37.21-2.28,1.29.46-2.83.06-.36-.26-.27L61.92,5.11l2.65-.41.4-.06.17-.36L66.28,1.8m0-1.8L64.46,4l-4.06.63,2.93,3.1L62.62,12l3.64-2,3.62,2.07L69.2,7.7l3-3.08L68.09,4l-1.8-4Z"/><path class="cls-2" d="M78.36,1.8l1.13,2.48.16.37.4.06,2.65.43-2,2-.26.27.06.37L81,10.64l-2.27-1.3-.37-.21L78,9.34l-2.28,1.29.46-2.83.06-.36L76,7.17,74,5.11l2.65-.41.4-.06.17-.36L78.36,1.8m0-1.8L76.54,4l-4.06.63,2.93,3.1L74.7,12l3.64-2L82,12.07,81.28,7.7l3-3.08L80.17,4l-1.8-4Z"/><path class="cls-2" d="M90.44,1.8l1.13,2.48.16.37.4.06,2.65.43-2,2-.26.27.06.37.44,2.82-2.27-1.3-.37-.21-.37.21-2.28,1.29.46-2.83,0-.36L88,7.17l-2-2.06,2.65-.41.4-.06.17-.36L90.44,1.8m0-1.8L88.62,4l-4.06.63,2.93,3.1L86.78,12l3.64-2L94,12.07,93.36,7.7l3-3.08L92.25,4l-1.8-4Z"/><path class="cls-2" d="M102.52,1.8l1.13,2.48.16.37.4.06,2.65.43-2,2-.26.27.06.37.44,2.82-2.27-1.3-.37-.21-.37.21-2.28,1.29.46-2.83,0-.36-.25-.27-2-2.06,2.65-.41.4-.06.17-.36,1.14-2.48m0-1.8L100.7,4l-4.06.63,2.92,3.1L98.86,12l3.64-2,3.62,2.07-.68-4.37,3-3.08L104.33,4l-1.81-4Z"/><polygon class="cls-1" points="9.49 28.06 5.86 25.99 2.22 28.04 2.93 23.68 0 20.59 4.06 19.96 5.89 16 7.69 19.97 11.75 20.62 8.8 23.7 9.49 28.06"/><polygon class="cls-1" points="21.57 28.06 17.94 25.99 14.3 28.04 15.01 23.68 12.08 20.59 16.14 19.96 17.97 16 19.77 19.97 23.83 20.62 20.88 23.7 21.57 28.06"/><polygon class="cls-1" points="33.65 28.06 30.02 25.99 26.38 28.04 27.09 23.68 24.16 20.59 28.22 19.96 30.05 16 31.85 19.97 35.91 20.62 32.96 23.7 33.65 28.06"/><polygon class="cls-1" points="45.73 28.06 42.1 25.99 38.46 28.04 39.17 23.68 36.24 20.59 40.3 19.96 42.13 16 43.93 19.97 47.99 20.62 45.04 23.7 45.73 28.06"/><polygon class="cls-1" points="57.8 28.06 54.18 25.99 50.54 28.04 51.25 23.68 48.32 20.59 52.38 19.96 54.21 16 56.01 19.97 60.07 20.62 57.12 23.7 57.8 28.06"/><path class="cls-2" d="M78.36,17.8l1.13,2.48.16.37.4.06,2.65.42-2,2.05-.26.27.06.37L81,26.64l-2.27-1.3-.37-.21-.37.21-2.28,1.28.46-2.82.06-.36L76,23.17l-2-2.06,2.65-.41.4-.06.17-.36,1.14-2.48m0-1.8-1.83,4-4.06.63,2.93,3.09L74.7,28,78.34,26,82,28.06l-.68-4.36,3-3.08L80.17,20l-1.8-4Z"/><path class="cls-2" d="M90.44,17.8l1.13,2.48.16.37.4.06,2.65.42-2,2.05-.26.27.06.37.44,2.82-2.27-1.3-.37-.21-.37.21-2.28,1.28.46-2.82,0-.36L88,23.17l-2-2.06,2.65-.41.4-.06.17-.36,1.14-2.48m0-1.8-1.83,4-4.06.63,2.93,3.09L86.78,28,90.42,26,94,28.06l-.68-4.36,3-3.08L92.25,20l-1.8-4Z"/><path class="cls-2" d="M102.52,17.8l1.13,2.48.16.37.4.06,2.65.42-2,2.05-.26.27.06.37.44,2.82-2.27-1.3-.37-.21-.37.21-2.28,1.28.46-2.82,0-.36-.25-.27-2-2.06,2.65-.41.4-.06.17-.36,1.14-2.48m0-1.8-1.82,4-4.06.63,2.92,3.09L98.86,28,102.5,26l3.62,2.07-.68-4.36,3-3.08L104.33,20l-1.81-4Z"/><path class="cls-2" d="M114.6,1.8l1.13,2.48.16.37.4.06,2.65.43-2,2-.26.27.06.37.44,2.82L115,9.34l-.37-.21-.37.21-2.28,1.29.45-2.83.06-.36-.25-.27-2-2.06,2.65-.41.4-.06.17-.36L114.6,1.8m0-1.8-1.82,4-4.07.63,2.93,3.1-.7,4.35,3.64-2,3.62,2.07-.68-4.37,3-3.08L116.41,4,114.6,0Z"/><path class="cls-2" d="M66.28,17.8l1.13,2.48.16.37.4.06,2.65.42-2,2.05-.26.27.06.37.44,2.82-2.27-1.3-.37-.21-.37.21-2.28,1.28.46-2.82.06-.36-.26-.27-1.95-2.06,2.65-.41.4-.06.17-.36,1.14-2.48m0-1.8-1.83,4-4.06.63,2.93,3.09L62.62,28,66.26,26l3.62,2.07L69.2,23.7l3-3.08L68.09,20l-1.8-4Z"/><polygon class="cls-1" points="66.33 16.03 66.33 25.92 62.72 27.96 63.42 23.6 60.49 20.5 64.55 19.88 66.33 16.03"/><polygon class="cls-1" points="66.23 16.03 66.23 25.92 62.62 27.96 63.32 23.6 60.39 20.5 64.45 19.88 66.23 16.03"/></g></g></svg>