<svg xmlns="http://www.w3.org/2000/svg" viewBox="0 0 156.61 100.33"><defs><style>.cls-1{fill:#fff;}</style></defs><g id="Layer_2" data-name="Layer 2"><g id="Layer_2-2" data-name="Layer 2"><path class="cls-1" d="M74.28,66.54c.39-4.7,4.58-8.57,9.64-9.81,8.49-2.06,14,1.94,15.61,11.5,4.19-3.25,7.19-6.29,8.47-6.33.26,0,.52.23.56.85.07,1.1-7.39,5.27-8.88,8.44C97.89,75,97.2,84.54,90.1,88.37,81,93.28,74.57,84.67,73,81.75S69.56,69.32,69.78,69C70.33,68,73.05,67.07,74.28,66.54Zm4.57,11.95c2.45,5.38,7.63,6.9,11.14,5.27,2.46-1.16,4.38-3.82,4.53-8.33a26.71,26.71,0,0,1-6,3.89C85.22,80.7,81.67,80.66,78.09,76A10.06,10.06,0,0,0,78.85,78.49Zm15-9.06c-1.71-7.16-6.39-9.36-10.29-8.26a7.49,7.49,0,0,0-5,4.73l.13.34a7.72,7.72,0,0,0,0,5.39c1.26,3,4.23,5.5,9.53,3.51a33,33,0,0,0,6.08-3.25A19.52,19.52,0,0,0,93.89,69.43Z"/><path class="cls-1" d="M101.13,42.64c-.23-2,4.38-4.09,4.85-4.24.33,0,2.27.06,4,.27s3.55.58,3.55.94a80.17,80.17,0,0,0-3.65,28.09c.17,4.45.89,7.57,2.3,7.45,2.27-.18,5.46-5.11,5.69-5.1.46,0,.92.15.88.77-.16,2.39-2.39,9.22-8.25,10.16-4.08.66-5.92.38-7.14-9-.3-2.34.42-20.3,0-27.08C103.33,44.08,101.18,43,101.13,42.64Z"/><path class="cls-1" d="M144.51,66.62c-1.29,3.23-5.82,7.53-5.82,7.53a51,51,0,0,0-12.94-1.61c.42,3.84,3.27,5.13,6.35,5.67,5.74,1,11.6.14,13.51-1.59.11-.25,1.61.24,2.38.59.33.14.55.25.53.28a38.79,38.79,0,0,1-20.17,3.23c-5.93-.58-11.14-3.17-10.73-11.66.11-2.35,6.08-15,18.9-10.65C141.47,60.1,145.78,63.49,144.51,66.62ZM132.84,72c.35.08,2-3.91,3.42-8.86a2.82,2.82,0,0,0-2-3.62c-2.77-.85-7.05,1.66-8.36,10a5.14,5.14,0,0,0-.06,1.9A48.38,48.38,0,0,1,132.84,72Z"/><path class="cls-1" d="M141.36,82.16a1.09,1.09,0,0,1-1.13,1.14,1.14,1.14,0,1,1,1.13-1.14Zm-.74,3.11c.3,0,.54,0,.54.18a.76.76,0,0,1-.14.3,15.43,15.43,0,0,0-.44,4.1c0,2.66.32,3.49.76,3.49.63,0,.65-1.22,1.32-1.22,0,.3-1.2,3.45-2.18,3.45s-1.15-2.18-1.15-4.12c0-3.85,0-3.15,0-5.91,0-.07,0-.16.07-.16S140.16,85.27,140.62,85.27Z"/><path class="cls-1" d="M142.29,85.34c0-.17.76-.3,1.3-.3.25,0,.43,0,.43.11s-.39,2.41-.51,5c.51-2.25,1.74-4.4,2.23-4.4.09-.12.35-.21.95-.21.32,0,.62,0,.62.21,0-.14-.42.83-.42,3.61,0,4,.33,4.47.77,4.47s.55-1.34.74-1.34.3.16.3.16-.81,3-1.9,3-1.39-3-1.39-4.17c0-.83.1-3.42.23-4.86-.69.79-1.52,4.7-1.52,7.09a4.74,4.74,0,0,0,.18,1.43c0,.19-.37.39-.83.39-1,0-1.27-1.92-1.27-4.05,0-2,.2-4.09.2-5.07V86.1A7.26,7.26,0,0,0,142.29,85.34Z"/><path class="cls-1" d="M151.29,85.38c.16-.67,0-.72.53-.72.31,0,.68.1.68.17a16.73,16.73,0,0,0-.4,2.66,24.24,24.24,0,0,0,.23,2.57c0,.18-.58.41-.69.41s-.93,0-.93-1a11.26,11.26,0,0,1,.23-2.34c0-.88-.11-1.64-.53-1.64s-1.18,1.18-1.18,4.49c0,2.92,1,3.79,2.06,3.79a2.43,2.43,0,0,0,2.36-2.29s.16-.07.23-.07.12,0,.12.19c-.35,2.27-1.9,3.91-3.45,3.91s-2.75-1.39-2.75-5c0-3.93,1.34-5.64,2.73-5.64A.78.78,0,0,1,151.29,85.38Z"/><path class="cls-1" d="M154.07,94.55a1,1,0,0,1-1-.79c0-1.18,1.5-2.08,2.52-2.08.44,0,1.06,0,1.06,1S155.09,94.55,154.07,94.55Z"/><path class="cls-1" d="M74.83,25c.48-5.82,2.26-17.43,2.43-18.31s5.83.17,10,1.57c2.61.88,4.57,2,4.36,2.68.29-.95-7.63,2.69-12.55,23.5C76.74,44.3,76,55.45,74,64.8c-.21,1-2.12,1.34-4.13,1.14-3.69-.38-8.49-2.24-8.09-4.83.57-3.76,2.39-11.8,3.91-19.94,2.5-13.43.72-32.1-14.83-35.2C29.54,1.73,11.48,24.91,16.06,45.8c3.62,16.55,19.7,22.64,34.13,26.68,7,2,25.51,6.71,24.7,10-1.15,4.62-18,13.88-27.62,16.9C33.6,103.63,28,92.92,26.85,87c-.84-4.34.6-6.27,1.91-6.54.14,0,7,14.54,20.44,12,4-.77,13.17-6.2,12.55-8.76-3.15-13-50.65-2.47-59.84-32.24C-7.74,20.14,20.7-5.83,51.84,1.14,63.48,3.74,74.5,12.16,74.83,25Z"/></g></g></svg>