<?xml version="1.0" encoding="utf-8"?>
<!-- Generator: Adobe Illustrator 24.1.0, SVG Export Plug-In . SVG Version: 6.00 Build 0)  -->
<svg version="1.1" id="Layer_1" xmlns="http://www.w3.org/2000/svg" xmlns:xlink="http://www.w3.org/1999/xlink" x="0px" y="0px"
	 viewBox="0 0 1920 1080" style="enable-background:new 0 0 1920 1080;" xml:space="preserve">
<style type="text/css">
	.st0{opacity:5.000000e-02;}
	.st1{clip-path:url(#SVGID_2_);}
	.st2{fill-rule:evenodd;clip-rule:evenodd;fill:#88D1D2;}
	.st3{fill:#FFFFFF;}
</style>
<g class="st0">
	<g>
		<defs>
			
				<rect id="SVGID_1_" x="-638.4" y="492.6" transform="matrix(0.9847 -0.1741 0.1741 0.9847 -137.1577 -82.5097)" width="198.8" height="496.2"/>
		</defs>
		<clipPath id="SVGID_2_">
			<use xlink:href="#SVGID_1_"  style="overflow:visible;"/>
		</clipPath>
		<g class="st1">
			<path class="st2" d="M-587.8,497.7c2.6,0.2,5.1,0.4,7.7,0.5c10.1,0.4,19.5,3.1,28.6,7.4c7.7,3.6,15.4,7.2,22.4,12
				c8.3,5.7,14.9,13.1,20.7,21.3c1.7,2.3,1.4,4-0.8,5.9c-8.6,7.6-17.3,15.1-25.9,22.7c-3.5,3-5,2.9-8.1-0.6
				c-4-4.4-8.3-8.3-13.6-11.1c-6.1-3.2-12.6-4-19.4-3.4c-5.3,0.4-10.3,1.8-14.7,4.8c-2.9,2-5.2,4.5-7.1,7.5c-1.7,2.7-3.4,5.4-5.1,8
				c-1.4,2.2-3.3,3-5.8,2.5c-2.4-0.5-4.8-1.2-7.3-1.7c-9.5-2.3-19-4.5-28.6-6.8c-1-0.2-2-0.5-3-0.9c-1.1-0.4-1.8-1.3-1.5-2.6
				c0.6-2.7,1.2-5.3,2-7.9c6-19,17.4-34,33-46c4-3,8.2-5.6,12.3-8.4c0.4-0.3,0.7-0.6,1-0.9C-596.5,499.2-592.2,498.4-587.8,497.7z"
				/>
		</g>
		<g class="st1">
			<path class="st2" d="M-504.5,986.8c-2,0.1-4,0.2-6,0.3c-11,0.4-21.9-0.6-32.2-4.4c-4.5-1.7-8.7-4.4-12.9-6.7
				c-3.3-1.8-6.5-3.8-9.8-5.7c-4.7-2.6-7.7-6.8-10-11.4c-0.9-1.8-0.4-3.2,1.4-4.1c11-5.9,22-11.8,33-17.6c1.8-0.9,3.8-1.4,5.7-0.7
				c1.1,0.4,2.3,1,2.9,1.8c3.2,4.5,7.6,6.3,12.9,6.5c5.5,0.2,11-0.1,16.2-2.2c3.4-1.4,6.2-3.7,8.9-6.1c1.2-1.1,2.4-2.2,3.7-3.1
				c1.7-1.1,3.6-1,5.4-0.2c8.2,3.3,16.5,6.6,24.7,9.9c3,1.2,6.1,2.4,9.1,3.6c2.8,1.2,3.1,2.1,1.7,4.9c-4.3,8.4-10.2,15.4-17.5,21.2
				c-3.8,3.1-7.6,6.2-12.3,8c-3.5,1.3-7.2,2.1-10.7,3.1c-1.5,0.4-2.9,0.8-4.4,1.3C-498,985.7-501.3,986.3-504.5,986.8z"/>
		</g>
		<g class="st1">
			<path class="st2" d="M-656,646.1c0.2-2.3,0.5-4.7,0.7-7c0.2-2.2,0.3-4.4,0.6-6.6c0.5-4.1,2.2-5.7,6.3-5.6
				c3.8,0.1,7.6,0.6,11.4,0.9c7.5,0.5,15,0.8,22.5,1.2c0.3,0,0.6,0,1,0.1c2.2,0.2,2.8,0.7,3.1,2.9c0.4,2.9,0.7,5.8,1,8.6
				c0.3,2.6,0.6,5.1,0.9,7.7c0.1,0.8,0.1,1.7,0,2.5c-0.2,1.9-1.3,3.2-3.2,3.4c-9,1.3-17.9,2.8-26.9,3.7c-4.9,0.5-10,0.6-14.9-1.1
				c-0.1,0-0.3,0-0.5,0C-654.8,653.3-655.4,649.7-656,646.1z"/>
		</g>
		<g class="st1">
			<path class="st2" d="M-447.2,689.6c-0.2,2.8-0.5,5.7-0.7,8.5c-0.3,4-0.5,8-0.8,12c0,0.4-0.1,0.7-0.1,1.2
				c-2.8,0.2-5.5,0.4-8.2,0.5c-9.1,0.5-18.1,1-27.2,1.5c-2.8,0.1-5.5-0.1-7.2-2.7c-0.6-0.9-1-2-1.2-3c-0.8-5-1.5-10-2.2-15.1
				c-0.3-2.2,0.7-3.6,2.9-3.9c8.7-1.4,17.4-2.7,26-4c2-0.3,4-0.6,6.1-1c0.6-0.1,1.3-0.3,1.8-0.7c2.8-1.9,5.7-2,8.7-0.7
				c0.2,0.1,0.5,0.1,0.7,0.2C-448,684.8-447.6,687.2-447.2,689.6z"/>
		</g>
		<g class="st1">
			<path class="st2" d="M-494.4,751.3c0.1-2.8,0.1-5.6,0.2-8.3c0.1-3.6,0.3-7.2,0.5-10.7c0.1-2.1,1.4-3.3,3.5-3.1
				c10.3,0.7,20.6,1.4,30.8,2.1c2.8,0.2,5.7,0.6,8.5,1c2.6,0.3,4,1.9,4,4.9c0,5.2,0,10.5-0.1,15.7c0,3.1-0.1,6.1-0.2,9.2
				c-0.1,4.8-2.9,6.8-7.5,5.3c-7.5-2.5-14.9-5-22.4-7.5c-4.1-1.4-8.2-2.8-12.3-4.2c-1-0.4-2-0.8-3-1.3
				C-493.5,753.6-494.1,752.6-494.4,751.3z"/>
		</g>
		<g class="st1">
			<path class="st2" d="M-621.3,751.1c-5-10-10-19.9-15.1-29.9c3.7-1.3,7.3-2.7,11-3.9c10-3.5,20-7,30-10.6c2.4-0.8,3.7-0.4,5,1.8
				c3.2,5.4,6.5,10.7,9.7,16.1c1.3,2.1,1.1,3.1-0.9,4.3c-13,7.3-26.1,14.7-39.1,22C-620.9,750.9-621.1,751-621.3,751.1z"/>
		</g>
		<g class="st1">
			<path class="st2" d="M-572.4,738.8c2.4,3.3,4.7,6.5,7,9.7c2.1,3,4.2,6,6.3,9c1,1.5,0.8,3.7-0.5,4.8
				c-11.3,9.7-22.6,19.4-33.9,29.1c-0.1,0.1-0.2,0.2-0.5,0.3c-5.9-8.6-11.7-17.1-17.6-25.8C-598.6,756.9-585.5,747.9-572.4,738.8z"
				/>
		</g>
		<g class="st1">
			<path class="st2" d="M-650.3,674.4c14.9-2,29.6-4,44.4-6.1c0.5,1.9,1,3.7,1.5,5.6c1.5,5.5,2.7,11.1,5.4,16.3
				c1,1.8,0.4,3.1-1.5,3.9c-11.6,4.9-23.4,9.2-35.9,11.2c-0.4,0.1-0.7,0.1-1.1,0.2c-1.8,0.2-3.6,0.4-5.5,0.7
				C-645.4,695.6-647.8,685.1-650.3,674.4z"/>
		</g>
		<g class="st1">
			<path class="st2" d="M-444.7,842.6c0.3,4.7,0.6,9.2,1,13.7c0.2,2.9,0.4,5.8,0.7,8.7c0.3,3.5-1,5-4.5,5c-12,0-24,0-36-0.1
				c-2.9,0-4.2-1.1-4.4-4c-0.6-6.8-1.1-13.6-1.7-20.5c-0.2-1.9,1.1-3.4,3-3.5c9.2-0.6,18.4-1.2,27.6-1.8c3.3-0.2,6.6-0.5,9.8-0.7
				C-446.5,839.2-445,840.4-444.7,842.6z"/>
		</g>
		<g class="st1">
			<path class="st2" d="M-613.8,612.8c-2-0.1-4.7-0.3-7.4-0.5c-7.4-0.5-14.7-1.2-22.1-1.6c-2-0.1-4,0.2-6,0.3
				c-0.3,0-0.6,0.1-0.8,0.1c-3.3,0.5-4.4-0.6-4.2-3.9c0.6-7.7,1.2-15.3,1.8-23c0.2-2.1,2.5-3.9,4.6-3.8c6.2,0.3,12.1,2.1,18.1,3.3
				c5.7,1.2,11.4,2.5,17.1,3.8c3.9,0.9,4.2,1.6,3.8,5.5c-0.5,4.8-0.7,9.6-1.1,14.4c-0.1,0.8-0.1,1.6-0.3,2.4
				C-610.6,611.7-611.5,612.5-613.8,612.8z"/>
		</g>
		<g class="st1">
			<path class="st2" d="M-585.5,843.8c3.7,0,7.3,0,10.9-0.1c7.2-0.1,14.4-0.3,21.5-0.4c3.3-0.1,5.1,1.4,5.3,4.8
				c0.4,6.2,0.8,12.5,1.2,18.7c0.2,2.7-0.5,3.4-3.2,3.8c-12.1,1.6-24.1,3.1-36.2,4.7c-0.4,0-0.7,0.1-1.1,0.1c-2,0.1-3.1-1-2.9-2.9
				c0.4-3.4,1-6.8,1.6-10.3c0.9-5.9,1.8-11.8,2.7-17.6C-585.7,844.3-585.6,844.1-585.5,843.8z"/>
		</g>
		<g class="st1">
			<path class="st2" d="M-510,621c-0.6-1.6,0-3,1.5-4.3c4.8-4.2,9.9-7.8,16-9.9c0.3-0.1,0.7-0.2,1-0.3c2.5-0.7,4.8-1.5,7.1-3.2
				c2.9-2.2,6.4-3.5,10.1-3.9c0.7-0.1,1.7,0.5,2.1,1.1c1.2,2,2.5,4.1,3.3,6.2c1.7,4.5,3.3,9,4.8,13.5c0.9,2.6,0,5-2.5,6.2
				c-2.4,1.1-4.9,1.9-7.4,2.8c-6.2,2.2-12.5,4.4-18.7,6.6c-1.9,0.7-3.4,2.1-4.9,3.4c-0.9,0.8-2,1.4-3.1,1.7
				c-1.8,0.5-3.3-0.5-3.8-2.3c-1.5-4.8-3-9.7-4.5-14.5C-509.4,623.2-509.7,622.2-510,621z"/>
		</g>
		<g class="st1">
			<path class="st2" d="M-499.6,557.9c1.6-0.1,2.6,0.2,3.5,1.6c4.1,6.5,8.3,12.9,12.4,19.4c0.2,0.3,0.2,1,0,1.3
				c-1.1,2.2-2.7,3.9-4.9,5.2c-6.7,4.1-13.3,8.3-19.9,12.5c-1.3,0.9-2.4,2.1-3.6,3.2c-0.8,0.7-1.4,1.6-2.3,2.3
				c-1.2,1-2.5,0.8-3.5-0.4c-0.4-0.4-0.7-0.8-0.9-1.3c-3.5-5.7-7.1-11.3-10.6-17c-1.5-2.4-1.2-3.6,1-5.3
				c8.9-6.9,17.8-13.7,26.7-20.6C-501,558.5-500.3,558.2-499.6,557.9z"/>
		</g>
		<g class="st1">
			<path class="st2" d="M-497.8,664.8c-0.4-2.3-0.9-4.7-1.2-7c-0.3-2.2,0.6-3.9,2.7-4.7c7.6-2.9,15.1-5.8,22.7-8.7
				c2.4-1,4.7-2.2,7.1-3.3c0.1-0.1,0.2-0.1,0.3-0.2c4.9-2.5,8.3-0.9,9.6,4.5c1.2,5.2,2.5,10.4,3.7,15.6c0.1,0.4,0.1,0.8,0.2,1.2
				c0.2,3.3-1,5-4.2,5.8c-3.4,0.8-6.9,1.2-10.3,1.9c-0.8,0.2-2-0.3-2.3,1.1c0,0.1-0.6,0.2-1,0.3c-4.5,0.6-9,1-13.5,1.7
				c-2.4,0.4-4.7,1.2-7,1.8c-0.2,0.1-0.5,0.1-0.7,0.2c-2.9,0.7-4.5-0.4-4.9-3.3c-0.2-1.2-0.4-2.3-0.6-3.4
				C-497.5,667.1-497.7,666-497.8,664.8C-497.9,664.8-497.9,664.8-497.8,664.8z"/>
		</g>
		<g class="st1">
			<path class="st2" d="M-487.1,893.1c-0.2-3.1-0.4-6.2-0.6-9.3c-0.1-2.8,1-4,3.8-3.9c7.7,0.3,15.5,0.7,23.2,0.9
				c5.4,0.2,10.7,0.3,16.1,0.5c0.6,0,1.2,0.1,1.8,0.2c1,0.2,1.7,0.8,1.8,1.9c0.1,2.6,0.2,5.2,0.3,7.8c0,1.3-0.1,2.7-0.2,4
				c-0.5,4.6-2.6,6.6-7.2,6.5c-5.1-0.1-10.2-0.6-15.2-0.9c-5.9-0.4-11.8-0.9-17.6-1.4c-3.8-0.3-5-1.3-5.6-5.1
				c-0.1-0.4-0.2-0.9-0.2-1.3C-487,893-487,893-487.1,893.1z"/>
		</g>
		<g class="st1">
			<path class="st2" d="M-511.6,652.9c0.2,1.1,0.3,2.2,0.6,3.3c0.6,2.3,1.3,4.6,1.9,6.8c0.3,1.3,0.7,2.7,0.8,4
				c0.3,3.5-1.6,4.8-4.8,3.5c-4.1-1.7-8.2-3.5-12.3-5.3c-6.7-3-13.4-6.1-20.1-9.1c-2-0.9-3.2-2.3-3.8-4.3c-1.3-4.3-2.4-8.7-3.5-13.1
				c-0.7-2.9,1.4-4.7,4.3-3.8c7.8,2.4,15.6,4.8,23.5,7.2c3.1,1,6.2,2.1,9.3,2.9c2,0.5,2.8,1.8,3.3,3.6
				C-512.1,650.1-511.9,651.5-511.6,652.9C-511.6,652.9-511.6,652.9-511.6,652.9z"/>
		</g>
		<g class="st1">
			<path class="st2" d="M-568.3,905.4c-5.9,0.8-11.8,1.6-17.6,2.4c-1.6,0.2-3.5-1.2-3.6-2.8c-0.2-4.5-0.3-8.9-0.3-13.4
				c0-0.8,0.6-1.9,1.2-2.5c1.7-1.7,3.9-2.5,6.3-3.1c6-1.4,12-0.9,18-1.1c4.8-0.2,9.5-0.2,14.3-0.2c3.2,0,3.3,0,4.1,3.1
				c0.8,3.1,1.2,6.3,0.8,9.5c-0.1,0.8-0.5,1.7-1,2.4c-1.3,1.6-3.1,2.5-5.1,2.9c-5.7,1-11.4,2-17.1,3
				C-568.2,905.5-568.2,905.4-568.3,905.4z"/>
		</g>
		<g class="st1">
			<path class="st2" d="M-582.7,944.6c-0.9-4-1.8-7.8-2.6-11.7c-0.5-2.7-0.9-5.5-1.2-8.2c-0.4-3.2,0.5-4.4,3.6-5
				c2.7-0.6,5.4-1.1,8.2-1.6c8.9-1.6,17.8-3.3,26.7-4.9c2.2-0.4,3.4,0,4.4,2.1c0.7,1.3,1,2.9,1.3,4.3c0.3,1.3,0.4,2.6,0.6,3.9
				c0.2,1.3-1,3-2.7,3.8c-4.1,1.9-8.3,3.8-12.5,5.7c-8.3,3.7-16.6,7.5-24.9,11.2C-582,944.3-582.2,944.4-582.7,944.6z"/>
		</g>
		<g class="st1">
			<path class="st2" d="M-541.5,674.2c4.7,1.4,9.4,2.8,14,4.3c5.3,1.6,10.7,3.2,16,4.9c1.1,0.3,2.2,0.7,3.3,1.2
				c2.8,1.4,4.4,3.7,4.6,6.8c0.4,4.3,0.8,8.5,1,12.8c0.1,2.1-1.5,3.6-3.6,3.6c-3.7,0-7.3-0.8-10.8-2.3c-6.1-2.6-12.1-5.1-18.2-7.7
				c-3.1-1.3-4.7-3.7-5-7.1c-0.3-3-0.9-5.9-1.5-8.8C-542.1,679.3-542.1,676.8-541.5,674.2z"/>
		</g>
		<g class="st1">
			<path class="st2" d="M-595.5,654.9c-0.5-2.8-1-5.3-1.4-7.9c-0.5-3.2-0.9-6.5-1.6-9.7c-1.1-5-0.2-9.4,2.8-13.3
				c5.7-7.4,11.7-14.7,17.5-22c0.1-0.2,0.3-0.3,0.4-0.4c2.2-2.1,3.5-1.9,4.5,1c1.2,3.4,2.1,6.9,3,10.3c0.6,2.1,1.1,4.2,1.6,6.3
				c0.4,1.9,0.1,3.6-1.1,5.1c-4.8,6-9.5,11.9-14.4,17.8c-3.3,4-6.8,7.8-10.2,11.7C-594.5,654.1-594.9,654.3-595.5,654.9z"/>
		</g>
		<g class="st1">
			<path class="st2" d="M-446.7,938.3c-4-1.7-7.8-3.4-11.7-5.1c-7.5-3.3-15-6.3-23-8.2c-3.6-0.8-5.3-3.3-5.5-7.5
				c0-1.3,0.1-2.7,0.3-4c0.5-2.4,2.1-3.5,5-3.3c4,0.3,8.1,0.8,12.1,1.2c7.8,0.8,15.6,1.7,23.3,2.5c4.7,0.5,6,2,5.3,6.8
				c-0.5,3.5-1.1,7-1.9,10.4C-443.4,933.7-444.8,936.1-446.7,938.3z"/>
		</g>
		<g class="st1">
			<path class="st2" d="M-557.6,659.3c-0.7,3.5-2.7,6.7-5.4,9.6c-6.1,6.7-12.1,13.6-18.1,20.3c-0.6,0.7-1.3,1.3-2,1.9
				c-1.3,0.9-2.4,0.8-3.1-0.7c-0.8-1.5-1.3-3.1-1.9-4.7c-1.1-3-2.1-6-3-9c-0.5-1.8-0.2-3.4,0.9-4.9c7.6-9.5,15.2-18.9,22.8-28.4
				c0.5-0.6,1.2-1.2,1.8-1.7c1.2-0.9,2.1-0.7,2.8,0.6c0.7,1.4,1.2,3,1.6,4.5c0.9,3.4,1.6,6.8,2.4,10.1
				C-558.7,657.7-558.2,658.3-557.6,659.3z"/>
		</g>
		<g class="st1">
			<path class="st2" d="M-562.9,595.7c3.7-0.3,7,0.8,10.4,1.9c3.6,1.2,7.2,2.6,10.9,3.5c2.2,0.6,4.6,0.5,6.9,0.7
				c0.5,0.1,1.2,0.2,1.5,0.5c3.2,3.6,6.6,7.1,8.7,11.5c0.8,1.8,1.3,3.7,1.9,5.6c0.4,1.1,0.8,2.2,1.2,3.3c0.5,1.2,1,2.4,1.4,3.7
				c0.4,1.3,0.1,2-1.3,2.4c-0.8,0.2-1.7,0.3-2.5,0c-10.7-3.3-21.3-6.6-32-10c-1.2-0.4-2-1.2-2.3-2.5
				C-559.6,609.6-561.3,602.7-562.9,595.7z"/>
		</g>
		<g class="st1">
			<path class="st2" d="M-576.1,712c-1-5.7,0.8-9.9,4-13.6c3-3.4,6-6.7,9-10.1c1.7-2,3.2-4.2,4.9-6.3c0.6-0.8,1.4-1.5,2.3-2.1
				c1.4-1,2.5-0.8,3.3,0.7c0.8,1.3,1.3,2.8,1.8,4.2c0.9,2.9,1.7,5.9,2.5,8.8c0.7,3-0.1,5.7-1.9,8.1c-2.8,3.7-5.8,7.4-8.7,11.1
				c-2.2,2.7-4.3,5.5-6.5,8.2c-2.6,3.2-4,3.1-6.4-0.2C-574,718-575.6,714.9-576.1,712z"/>
		</g>
		<g class="st1">
			<path class="st2" d="M-531.3,728.7c-0.6-3.4-1.2-6.9-1.8-10.3c-0.1-0.6,0-1.3,0.1-1.9c0.3-1.3,1.2-1.9,2.5-1.6
				c0.5,0.1,1.1,0.3,1.6,0.5c7.5,3.7,14.9,7.5,22.5,11.1c2.4,1.2,3.3,3.1,3.5,5.5c0.2,3.3,0.1,6.6,0,9.9c0,1.1,0.1,2.3-0.1,3.4
				c-0.2,1.8-1.4,2.6-3.2,2.1c-0.5-0.1-0.9-0.3-1.3-0.5c-6.7-3.5-13.4-7-20.2-10.4c-1.4-0.7-2.2-1.8-2.6-3.3
				C-530.7,731.7-531,730.2-531.3,728.7C-531.4,728.7-531.3,728.7-531.3,728.7z"/>
		</g>
		<g class="st1">
			<path class="st2" d="M-550.3,752c-2.8-3.6-5.4-7.1-8.1-10.6c-0.8-1.1-1.6-2.1-2.4-3.2c-1.5-2-1.4-3.6,0.5-5.3
				c4.4-4.1,8.8-8.1,13.1-12.2c0.1-0.1,0.1-0.1,0.2-0.2c2.2-1.9,3.5-1.5,4.3,1.2c1.3,4.4,2.4,8.8,3.6,13.2c0.4,1.4,0.1,2.7-0.8,3.8
				C-543.4,743.1-546.8,747.5-550.3,752z"/>
		</g>
		<g class="st1">
			<path class="st2" d="M-596.4,603.2c-0.8,0.1-1.7-0.6-1.7-2.1c0.3-9.9,1.3-19.6,7.7-27.7c1.2-1.5,2.5-2.9,3.9-4.1
				c1.9-1.7,3.7-1.5,5.1,0.7c1.4,2.3,2.3,4.7,3.5,7.1c0.1,0.2,0.1,0.5,0,0.7c-0.7,2.2-1.4,4.3-3.2,6c-4.7,4.5-8.1,9.8-10.9,15.7
				C-592.9,601.2-593.9,602.7-596.4,603.2z"/>
		</g>
		<g class="st1">
			<path class="st2" d="M-541.6,587.5c-1.5-0.4-3.1-0.6-4.5-1.2c-6.6-2.6-13.2-5.4-19.9-8c-1.6-0.6-2.6-1.6-2.8-3.4
				c-0.6-3.6-1.3-7.1-1.9-10.7c0-0.3,0-0.5-0.1-0.9c2.3-0.3,4.4-0.4,6.6,0.7c9.3,4.7,16.5,11.7,22,20.4c0.5,0.8,0.6,1.9,0.9,2.8
				C-541.4,587.3-541.5,587.4-541.6,587.5z"/>
		</g>
		<g class="st1">
			<path class="st2" d="M-522.7,877.9c-5.8,1.4-12.6-1.7-14.7-7c-1.4-3.5-1.9-7.2-1.5-11c0.3-3.1,2.5-4.6,5.4-3.4
				c6.8,2.7,11.8,8,10.7,16.4C-523,874.4-522.7,876.1-522.7,877.9z"/>
		</g>
		<g class="st1">
			<path class="st2" d="M-499.6,854.3c1,5.4,1.9,10.6,2.8,15.7c0.1,0.3-0.1,0.8-0.4,1c-2.3,1.8-4.6,3.5-6.9,5.3
				c-0.4,0.3-0.9,0.5-1.4,0.7c-2.5,1-4.6,0.2-5.2-2.5c-0.6-3-0.9-6-1.3-9.1c-0.1-0.5-0.2-1.1-0.1-1.6c0.2-0.8,0.4-1.8,0.9-2.2
				C-507.3,859.2-503.5,856.9-499.6,854.3z"/>
		</g>
		<g class="st1">
			<path class="st2" d="M-521.7,898.8c0,1.3,0.2,2.6,0.1,3.8c-0.1,1.6-1,2.4-2.5,2.2c-3.9-0.4-7.5-1.8-10.4-4.5
				c-2.8-2.7-3.1-7.7-0.8-10.8c1.2-1.6,3.1-2,4.9-0.8c2,1.4,3.9,2.8,5.8,4.4C-523,894.6-521.9,896.5-521.7,898.8z"/>
		</g>
		<g class="st1">
			<path class="st2" d="M-505.1,934.1c-1.3-2.7-3-5-3-8c0.1-3,1.1-5.5,2.9-7.7c1.2-1.4,2.6-2.7,3.9-4.1c0.2-0.2,0.4-0.4,0.7-0.5
				c1.9-1.1,3-0.5,3.3,1.6c0.1,0.4,0.1,0.9,0,1.3c-0.4,3.3-0.8,6.5-1.2,9.8c-0.3,2.7-1.6,4.7-4,6.1
				C-503.3,933-504.1,933.5-505.1,934.1z"/>
		</g>
		<g class="st1">
			<path class="st2" d="M-521.4,933.9c-6.2-1.8-9.5-6.3-11.8-11.7c-0.5-1.2,0.2-4.6,1.2-5.3c0.3-0.2,0.8-0.3,1.3-0.2
				c5.2,0.4,9.3,4,10.4,9.1c0.1,0.4,0.2,0.9,0.1,1.3C-520.6,929.3-521,931.6-521.4,933.9z"/>
		</g>
		<g class="st1">
			<path class="st2" d="M-497.3,892.1c1.5,4.8-3.9,11-8.3,11.7c-1.9,0.3-3.3-0.5-4-2.3c-1.4-3.4-0.3-7.2,2.7-9.3
				c1.6-1.1,3.4-2.1,5.2-3c2.7-1.3,3.7-0.7,4.3,2.3C-497.3,891.7-497.3,891.9-497.3,892.1z"/>
		</g>
	</g>
	<g>
		<g>
			<path class="st3" d="M-593,791.4c-1.1-11.9,7.6-23.3,19.7-28.6c20.2-8.9,35.6-1.3,43.9,21.7c9-9.9,15.1-18.8,18.3-19.4
				c0.6-0.1,1.4,0.3,1.8,1.8c0.6,2.7-16,16.4-18.4,24.9c-2.8,10.2-0.3,34.3-16.3,46.9c-20.5,16.2-40.2-2.4-45.5-8.9
				c-5.4-6.7-13.9-29.4-13.5-30.4C-602.2,796.8-595.9,793.2-593,791.4z M-576.4,819.1c8.5,12.3,22,13.8,30,8.2
				c5.6-3.9,9.2-11.4,7.6-22.7c-3.9,4.5-8.4,9.1-13.3,12.3c-7.5,4.9-16.3,6.3-27.3-3.8C-578.6,815.3-577.6,817.4-576.4,819.1z
				 M-543,790c-7.4-17-20-20.5-29.2-16c-5.2,2.5-9.3,7.8-10.3,13.9c0.2,0.3,0.3,0.5,0.5,0.8c0.3,0.5-1.9,6.8,2.3,13.4
				c4.4,6.9,12.9,11.8,25.2,4.6c3.8-2.2,8.4-5.9,13.7-10.8C-541.4,793.7-542.2,791.8-543,790z"/>
			<path class="st3" d="M-536.8,720.2c-1.5-4.9,9.1-12.1,10.2-12.7c0.8-0.1,5.7-0.8,10.2-1.1c4.5-0.3,9.1-0.1,9.2,0.8
				c-3.4,23.7-1.8,48.3,3.3,71.4c2.4,11,5.5,18.4,9,17.5c5.6-1.5,11.3-15.1,11.9-15.2c1.2-0.2,2.4,0,2.5,1.5c0.7,6-1.9,24-16.1,28.9
				c-9.9,3.4-14.5,3.5-21.7-19.2c-1.8-5.7-7.9-50.7-12-67.3C-530.7,722.8-536.5,721.1-536.8,720.2z"/>
			<path class="st3" d="M-418.4,760.7c-1.8,8.6-11.2,21.3-11.2,21.3c-7.4-0.9-23.7-0.3-32.9,1.7c2.7,9.4,10.4,11.3,18.3,11.3
				c14.7,0,28.9-4.7,32.9-9.9c0.2-0.7,4.1-0.1,6.2,0.4c0.9,0.2,1.5,0.4,1.4,0.5c-12.4,8.2-27.5,15.2-48.7,16.9
				c-15,1.2-29.1-3-31.8-24.3c-0.7-5.9,8.5-40.1,42.3-34.8C-428.8,745.9-416.6,752.4-418.4,760.7z M-445,779.2
				c0.9,0,3.4-10.6,4.6-23.6c0.4-4.6-2.4-7.6-6.6-8.1c-7.3-0.9-16.8,7.2-16.4,28.5c0,1.8,0.1,3.4,0.7,4.7
				C-456.1,779.5-446.2,779.1-445,779.2z"/>
		</g>
	</g>
	<g>
		<path class="st3" d="M-419.4,800.8c0.3,1.4-0.5,3-2.3,3.3c-1.9,0.3-3.1-0.9-3.4-2.3c-0.2-1.4,0.5-3,2.4-3.3
			C-420.8,798.1-419.6,799.4-419.4,800.8z M-419.8,808.8c0.7-0.1,1.3-0.1,1.4,0.2c0,0.2-0.1,0.7-0.2,0.8c-0.3,2.7,0.1,6.9,0.7,10.4
			c1.2,6.6,2.3,8.5,3.4,8.4c1.6-0.3,1.1-3.3,2.7-3.6c0.1,0.7-1.5,9.1-3.9,9.5c-2.4,0.4-3.8-4.9-4.7-9.7c-1.7-9.6-1.3-7.8-2.5-14.7
			c0-0.2,0-0.4,0.1-0.4C-422.4,809.5-421,809-419.8,808.8z"/>
		<path class="st3" d="M-415.7,808.2c-0.1-0.4,1.8-1.1,3.1-1.3c0.6-0.1,1.1-0.1,1.1,0.1c0,0.1,0.1,6.2,0.9,12.6
			c0.3-5.8,2.4-11.7,3.6-11.9c0.2-0.3,0.8-0.7,2.3-0.9c0.8-0.1,1.6-0.2,1.6,0.2c-0.1-0.3-0.7,2.3,0.5,9.2c1.7,9.9,2.8,11,3.9,10.8
			c1.2-0.2,0.8-3.6,1.3-3.7c0.3-0.1,0.8,0.3,0.8,0.3s-0.7,7.9-3.4,8.4c-3,0.5-4.8-6.9-5.3-9.7c-0.4-2.1-1.3-8.6-1.6-12.2
			c-1.4,2.3-1.7,12.4-0.7,18.3c0.3,1.5,0.7,2.7,1.1,3.5c0.1,0.5-0.7,1.1-1.9,1.3c-2.5,0.4-4-4.2-4.9-9.5c-0.9-4.9-1.3-10.3-1.7-12.7
			c-0.1-0.3-0.1-0.6-0.1-0.8C-415.3,808.7-415.6,808.9-415.7,808.2z"/>
		<path class="st3" d="M-393.3,804.4c0.1-1.7-0.3-1.8,1-2c0.8-0.1,1.7-0.1,1.7,0.1c0.1,0.5-0.3,4.1,0.2,6.8c0.5,2.8,1.6,5.9,1.7,6.3
			c0.1,0.5-1.3,1.3-1.5,1.3c-0.5,0.1-2.3,0.5-2.7-2.1c-0.3-2-0.5-4-0.5-5.9c-0.4-2.2-1-4-2-3.9c-1.3,0.2-2.4,3.5-1,11.7
			c1.3,7.3,4.2,9,6.8,8.5c2.9-0.5,5-3.1,4.9-6.7c0.1,0,0.4-0.2,0.5-0.3c0.2,0,0.3,0.1,0.4,0.4c0.1,5.8-3,10.6-6.9,11.2
			c-3.6,0.6-7.5-2.2-9.1-11.3c-1.7-9.8,0.9-14.6,4.3-15.2C-394.4,803.2-393.7,803.7-393.3,804.4z"/>
		<path class="st3" d="M-382.3,826c-1.5,0.3-2.8-0.5-2.9-1.5c-0.5-2.9,2.8-5.8,5.4-6.3c1.1-0.2,2.7-0.4,3.1,2
			C-376.5,822.2-379.8,825.5-382.3,826z"/>
	</g>
	<g>
		<g>
			<path class="st3" d="M-609.9,687.9c-1.4-14.7-2-44.3-2-46.6c0-1.9,14.6-2.1,25.6-0.5c6.9,1,12.2,2.9,12,4.7
				c0.3-2.5-17.8,10.1-20.9,63.9c-1.5,25.5,1.6,53.6,0.8,77.7c-0.1,2.6-4.7,4.3-9.8,4.7c-9.3,0.7-22.1-1.8-22.2-8.5
				c-0.2-9.6,0.8-30.4,1-51.3c0.3-34.5-12.3-80.1-52.3-81c-54.9-1.2-89.6,64.4-69.1,114.3c16.3,39.6,58.9,47.6,96.6,51.3
				c18.4,1.8,66.4,5.5,65.8,13.9c-0.8,12-38.6,42.4-61.3,54.2c-32.1,16.6-50.8-7.5-56.2-21.7c-4-10.4-1.3-15.9,1.9-17.1
				c0.3-0.1,23.8,33.1,56.1,20.8c9.6-3.7,30-21.2,27.4-27.3c-13.5-30.9-127,16.1-163-53.9c-37.8-73.6,21.5-150.7,102-147
				C-647.5,640-616.4,656.1-609.9,687.9z"/>
		</g>
	</g>
</g>
</svg>
