<svg xmlns="http://www.w3.org/2000/svg" xmlns:xlink="http://www.w3.org/1999/xlink" viewBox="0 0 12.69 31.78"><defs><style>.cls-1{fill:none;}.cls-2{clip-path:url(#clip-path);}.cls-3{fill:#81dbd8;fill-rule:evenodd;}</style><clipPath id="clip-path" transform="translate(-0.04 -0.02)"><rect class="cls-1" width="12.73" height="31.77"/></clipPath></defs><g id="Layer_2" data-name="Layer 2"><g id="Layer_2-2" data-name="Layer 2"><g class="cls-2"><path class="cls-3" d="M6,0l.48.11A4.81,4.81,0,0,1,8.2.92a9.47,9.47,0,0,1,1.28,1A5.43,5.43,0,0,1,10.54,3.5a.24.24,0,0,1-.11.36Q9.49,4.45,8.54,5c-.26.16-.35.13-.51-.12A3.14,3.14,0,0,0,7.3,4,2.2,2.2,0,0,0,6.12,3.6a1.73,1.73,0,0,0-1,.14,1.46,1.46,0,0,0-.53.39l-.41.45a.34.34,0,0,1-.4.09,4,4,0,0,1-.43-.19L1.64,3.74l-.18-.1c-.06,0-.1-.1-.06-.17A3.48,3.48,0,0,1,1.61,3,5.79,5.79,0,0,1,4.21.46c.28-.15.58-.27.87-.4l.07,0Z" transform="translate(-0.04 -0.02)"/><path class="cls-3" d="M5.8,31.79l-.38-.05a5.28,5.28,0,0,1-2-.63,6.92,6.92,0,0,1-.74-.57l-.56-.47a1.64,1.64,0,0,1-.51-.83c0-.12,0-.2.14-.25l2.28-.74a.45.45,0,0,1,.36,0,.39.39,0,0,1,.16.15,1,1,0,0,0,.75.55,2.43,2.43,0,0,0,1,.05A2.12,2.12,0,0,0,7,28.73a1.43,1.43,0,0,1,.27-.15.32.32,0,0,1,.34,0l1.45.9.53.33c.17.11.17.17.06.33a4.24,4.24,0,0,1-1.35,1.14,2.71,2.71,0,0,1-.86.36,5.51,5.51,0,0,1-.71.08l-.29,0Z" transform="translate(-0.04 -0.02)"/><path class="cls-3" d="M0,8.62l.12-.44c0-.13.07-.27.11-.41a.35.35,0,0,1,.46-.28c.24,0,.47.12.71.18L2.84,8H2.9c.14,0,.17.08.16.22s0,.37,0,.56l0,.49a.88.88,0,0,1,0,.16.23.23,0,0,1-.24.18c-.58,0-1.16,0-1.74-.06a2.33,2.33,0,0,1-.93-.24H0Z" transform="translate(-0.04 -0.02)"/><path class="cls-3" d="M12.73,13.69c-.05.17-.1.35-.14.53s-.12.5-.18.75a.14.14,0,0,0,0,.07L11.86,15l-1.73-.21a.47.47,0,0,1-.42-.25.65.65,0,0,1,0-.2l0-1a.21.21,0,0,1,.23-.21l1.69,0H12a.23.23,0,0,0,.12,0,.56.56,0,0,1,.56,0l0,0Z" transform="translate(-0.04 -0.02)"/><path class="cls-3" d="M9.06,17.05c0-.18.07-.35.11-.52l.15-.68a.19.19,0,0,1,.26-.15l1.92.47.52.16a.28.28,0,0,1,.2.35c-.05.33-.12.66-.18,1s-.07.39-.11.58-.26.4-.54.25l-1.32-.73-.73-.4-.18-.11A.27.27,0,0,1,9.06,17.05Z" transform="translate(-0.04 -0.02)"/><path class="cls-3" d="M1.06,15.62c-.21-.68-.41-1.36-.62-2l.74-.13,2-.33c.15,0,.23,0,.29.17l.43,1.12c.06.15,0,.21-.1.26l-2.71.95Z" transform="translate(-0.04 -0.02)"/><path class="cls-3" d="M4.28,15.39l.33.7.3.63a.23.23,0,0,1-.09.3L2.36,18.48l0,0c-.27-.61-.54-1.22-.82-1.83Z" transform="translate(-0.04 -0.02)"/><path class="cls-3" d="M.09,10.47,3,10.58c0,.12,0,.24,0,.37A4.93,4.93,0,0,0,3.14,12c0,.13,0,.2-.13.23a9.66,9.66,0,0,1-2.39.3H.55l-.35,0C.16,11.85.12,11.17.09,10.47Z" transform="translate(-0.04 -0.02)"/><path class="cls-3" d="M11.18,23.36q0,.45-.09.87l-.06.56c0,.22-.12.3-.33.26l-2.27-.41c-.18,0-.25-.11-.24-.29,0-.44.08-.88.13-1.31a.19.19,0,0,1,.22-.19L10.3,23l.63.07C11.1,23.13,11.18,23.22,11.18,23.36Z" transform="translate(-0.04 -0.02)"/><path class="cls-3" d="M3.07,7l-.46-.12L1.24,6.52l-.38,0H.8c-.21,0-.27-.09-.22-.29.12-.48.25-1,.37-1.43a.3.3,0,0,1,.33-.19A6.44,6.44,0,0,1,2.39,5l1,.43c.23.1.24.15.17.39s-.15.6-.23.9a.83.83,0,0,1,0,.15C3.29,7,3.23,7,3.07,7Z" transform="translate(-0.04 -0.02)"/><path class="cls-3" d="M2.28,21.87,3,22l1.36.21a.29.29,0,0,1,.29.36c0,.4-.09.8-.14,1.19,0,.17-.07.21-.24.21l-2.33-.11H1.84c-.13,0-.19-.09-.15-.22s.14-.42.21-.63.24-.72.37-1.08C2.27,21.9,2.28,21.89,2.28,21.87Z" transform="translate(-0.04 -0.02)"/><path class="cls-3" d="M9.53,8.66a.24.24,0,0,1,.14-.26A3.2,3.2,0,0,1,10.79,8h.06a1.41,1.41,0,0,0,.49-.12A1.3,1.3,0,0,1,12,7.69a.18.18,0,0,1,.12.09,3.59,3.59,0,0,1,.14.43c.06.3.1.61.15.91a.29.29,0,0,1-.23.36,4,4,0,0,1-.5.1l-1.25.2a1.39,1.39,0,0,0-.35.16.54.54,0,0,1-.21.08.2.2,0,0,1-.22-.19l-.12-1C9.54,8.8,9.54,8.74,9.53,8.66Z" transform="translate(-0.04 -0.02)"/><path class="cls-3" d="M10.89,4.79a.21.21,0,0,1,.2.15l.57,1.36a.11.11,0,0,1,0,.08.85.85,0,0,1-.37.28l-1.39.56c-.09,0-.17.11-.26.16a1.77,1.77,0,0,1-.17.12.15.15,0,0,1-.22-.06.36.36,0,0,1,0-.09L8.72,6.16c-.07-.16,0-.24.12-.32l1.91-1Z" transform="translate(-0.04 -0.02)"/><path class="cls-3" d="M9.81,11.56V11.1a.24.24,0,0,1,.22-.26l1.53-.3c.16,0,.32-.09.48-.13h0c.34-.1.54,0,.56.39l.06,1v.07c0,.22-.12.31-.33.32h-.67c-.06,0-.13,0-.16,0h-.07l-.86,0c-.16,0-.31,0-.46,0h-.05c-.19,0-.28-.07-.28-.26a1.77,1.77,0,0,0,0-.23v-.22Z" transform="translate(-0.04 -0.02)"/><path class="cls-3" d="M7.94,26.07c0-.2,0-.39.07-.59s.11-.24.28-.2l1.45.32,1,.21.11,0A.12.12,0,0,1,11,26c0,.17,0,.33-.07.5s0,.16-.05.25a.41.41,0,0,1-.53.33l-1-.23-1.1-.28C8,26.48,8,26.41,8,26.16v-.09Z" transform="translate(-0.04 -0.02)"/><path class="cls-3" d="M9.07,10.65v.22c0,.15,0,.3,0,.45a1.22,1.22,0,0,1,0,.27c0,.22-.15.28-.34.16l-.71-.47-1.17-.8a.45.45,0,0,1-.19-.31c0-.29,0-.58-.07-.86S6.78,9,7,9.11l1.4.72c.18.1.36.2.55.29a.28.28,0,0,1,.17.26v.27Z" transform="translate(-0.04 -0.02)"/><path class="cls-3" d="M2.69,26,1.55,25.9a.21.21,0,0,1-.2-.21c0-.29.08-.57.13-.85a.25.25,0,0,1,.11-.14A.78.78,0,0,1,2,24.57a6.22,6.22,0,0,1,1.14.13c.31,0,.61.1.91.15s.21,0,.23.24a1.73,1.73,0,0,1-.06.6.26.26,0,0,1-.09.14A.56.56,0,0,1,3.8,26c-.37,0-.74,0-1.11,0Z" transform="translate(-0.04 -0.02)"/><path class="cls-3" d="M1.34,28.25c0-.26,0-.51,0-.76a4.87,4.87,0,0,1,0-.54c0-.2.08-.27.28-.27H3.87a.23.23,0,0,1,.26.18,1.36,1.36,0,0,1,0,.29,2.09,2.09,0,0,1,0,.25c0,.08-.1.18-.21.21l-.85.22-1.7.43Z" transform="translate(-0.04 -0.02)"/><path class="cls-3" d="M7,11.66l.84.43,1,.48a1.22,1.22,0,0,1,.19.12.49.49,0,0,1,.22.48c0,.27-.05.55-.08.82a.2.2,0,0,1-.26.18,1.72,1.72,0,0,1-.66-.26l-1.06-.69a.52.52,0,0,1-.24-.5,5.42,5.42,0,0,0,0-.57A1,1,0,0,1,7,11.66Z" transform="translate(-0.04 -0.02)"/><path class="cls-3" d="M3.76,9.84V9.33c0-.21,0-.42,0-.63a.94.94,0,0,1,.33-.81c.44-.4.9-.8,1.35-1.19l0,0c.16-.11.24-.09.27.11s0,.45.08.68l0,.42a.42.42,0,0,1-.13.31l-1.11,1-.77.63Z" transform="translate(-0.04 -0.02)"/><path class="cls-3" d="M10,29.37l-.68-.45a7.57,7.57,0,0,0-1.36-.77.47.47,0,0,1-.26-.54,1.17,1.17,0,0,1,.07-.25c.06-.14.17-.19.35-.15l.75.21,1.44.42c.29.08.36.19.26.48s-.15.43-.24.64A.93.93,0,0,1,10,29.37Z" transform="translate(-0.04 -0.02)"/><path class="cls-3" d="M6.1,10.54a1.32,1.32,0,0,1-.45.55L4.28,12.17a.56.56,0,0,1-.15.1c-.09,0-.15,0-.18-.08a1.65,1.65,0,0,1-.07-.32q-.06-.3-.09-.6A.31.31,0,0,1,3.9,11L5.66,9.43a.57.57,0,0,1,.13-.08c.08,0,.14,0,.17.06a1.67,1.67,0,0,1,0,.31c0,.22,0,.44,0,.66A.58.58,0,0,0,6.1,10.54Z" transform="translate(-0.04 -0.02)"/><path class="cls-3" d="M6.48,6.48a1.62,1.62,0,0,1,.63.24c.21.11.42.24.64.34a3.45,3.45,0,0,0,.43.12.16.16,0,0,1,.09.05,3.18,3.18,0,0,1,.42.82c0,.12,0,.25.06.38a2.07,2.07,0,0,0,0,.22c0,.08,0,.16.05.25s0,.13-.11.13a.44.44,0,0,1-.16,0L6.67,8a.23.23,0,0,1-.12-.18C6.53,7.39,6.5,6.93,6.48,6.48Z" transform="translate(-0.04 -0.02)"/><path class="cls-3" d="M4.35,13.66a1,1,0,0,1,.4-.81l.68-.54L5.81,12A.91.91,0,0,1,6,11.86a.13.13,0,0,1,.21.08,1.36,1.36,0,0,1,.06.29l.06.58a.6.6,0,0,1-.21.49c-.22.21-.45.4-.68.6l-.5.45c-.2.17-.29.15-.4-.08A1.63,1.63,0,0,1,4.35,13.66Z" transform="translate(-0.04 -0.02)"/><path class="cls-3" d="M7,15.22c0-.23,0-.45,0-.68a.27.27,0,0,1,0-.12.12.12,0,0,1,.17-.07l.1.05,1.29.95a.39.39,0,0,1,.16.39c0,.21-.07.41-.11.62a1.3,1.3,0,0,1,0,.21.15.15,0,0,1-.23.1l-.08-.05-1.15-.88A.32.32,0,0,1,7,15.51c0-.1,0-.2,0-.29Z" transform="translate(-0.04 -0.02)"/><path class="cls-3" d="M5.53,16.47l-.39-.75L5,15.49a.22.22,0,0,1,.09-.33l1-.63h0c.15-.1.24-.06.26.12s.05.58.08.87a.33.33,0,0,1-.1.24Z" transform="translate(-0.04 -0.02)"/><path class="cls-3" d="M4.28,6.57s-.1-.05-.08-.15A2.9,2.9,0,0,1,5,4.76a1.94,1.94,0,0,1,.29-.21c.14-.09.25-.06.31.1a3.79,3.79,0,0,1,.14.48s0,0,0,0a.89.89,0,0,1-.27.34,3.24,3.24,0,0,0-.86.87A.38.38,0,0,1,4.28,6.57Z" transform="translate(-0.04 -0.02)"/><path class="cls-3" d="M7.91,6.19a2.21,2.21,0,0,1-.27-.12L6.47,5.34a.27.27,0,0,1-.14-.25c0-.23,0-.46,0-.69a.13.13,0,0,1,0-.06.65.65,0,0,1,.4.12A3.6,3.6,0,0,1,7.91,6a1.11,1.11,0,0,1,0,.19Z" transform="translate(-0.04 -0.02)"/><path class="cls-3" d="M5.87,24.72A.83.83,0,0,1,5,24.11a1.43,1.43,0,0,1,0-.71.23.23,0,0,1,.38-.15,1,1,0,0,1,.49,1.15A1.64,1.64,0,0,0,5.87,24.72Z" transform="translate(-0.04 -0.02)"/><path class="cls-3" d="M7.59,23.49c0,.35,0,.69,0,1a.07.07,0,0,1,0,.06l-.49.26-.1,0a.22.22,0,0,1-.3-.22c0-.19,0-.39,0-.58,0,0,0-.07,0-.1s0-.11.08-.13C7,23.71,7.31,23.61,7.59,23.49Z" transform="translate(-0.04 -0.02)"/><path class="cls-3" d="M5.7,26.05c0,.08,0,.16,0,.24s-.09.14-.19.11a1.07,1.07,0,0,1-.6-.4.55.55,0,0,1,.07-.69.21.21,0,0,1,.31,0c.11.11.22.22.32.34A.54.54,0,0,1,5.7,26.05Z" transform="translate(-0.04 -0.02)"/><path class="cls-3" d="M6.35,28.46a1.13,1.13,0,0,1-.1-.54.75.75,0,0,1,.27-.45c.09-.08.2-.15.29-.22l.05,0c.13-.05.2,0,.2.13s0,.06,0,.09l-.18.6a.5.5,0,0,1-.32.34Z" transform="translate(-0.04 -0.02)"/><path class="cls-3" d="M5.32,28.26a1.2,1.2,0,0,1-.61-.87.4.4,0,0,1,.14-.32.11.11,0,0,1,.08,0,.73.73,0,0,1,.55.69.19.19,0,0,1,0,.08Z" transform="translate(-0.04 -0.02)"/><path class="cls-3" d="M7.31,25.9c0,.32-.36.65-.65.64a.22.22,0,0,1-.23-.18.49.49,0,0,1,.28-.56,1.91,1.91,0,0,1,.36-.13c.18-.06.24,0,.24.19Z" transform="translate(-0.04 -0.02)"/></g></g></g></svg>