<svg xmlns="http://www.w3.org/2000/svg" xmlns:xlink="http://www.w3.org/1999/xlink" viewBox="0 0 12.69 31.78"><defs><style>.cls-1{fill:none;}.cls-2{clip-path:url(#clip-path);}.cls-3{fill:#81dbd8;fill-rule:evenodd;}</style><clipPath id="clip-path" transform="translate(-0.01 -0.02)"><rect class="cls-1" width="12.73" height="31.77"/></clipPath></defs><g id="Layer_2" data-name="Layer 2"><g id="Layer_2-2" data-name="Layer 2"><g class="cls-2"><path class="cls-3" d="M6.74,0,6.26.13A4.73,4.73,0,0,0,4.54.92a8.88,8.88,0,0,0-1.28,1A5.46,5.46,0,0,0,2.19,3.5a.24.24,0,0,0,.12.36L4.2,5c.25.16.34.13.5-.12A3.14,3.14,0,0,1,5.43,4,2.24,2.24,0,0,1,6.62,3.6a1.73,1.73,0,0,1,1,.14,1.55,1.55,0,0,1,.53.39l.41.45a.32.32,0,0,0,.39.09,4.17,4.17,0,0,0,.44-.19l1.72-.74a1,1,0,0,0,.18-.1.13.13,0,0,0,.07-.17c-.07-.17-.14-.33-.22-.48A5.76,5.76,0,0,0,8.53.46C8.24.31,8,.19,7.66.06L7.58,0Z" transform="translate(-0.01 -0.02)"/><path class="cls-3" d="M6.94,31.79l.38-.05a5.34,5.34,0,0,0,2-.63,8.09,8.09,0,0,0,.74-.57l.56-.47a1.62,1.62,0,0,0,.5-.83A.18.18,0,0,0,11,29l-2.28-.74a.47.47,0,0,0-.37,0,.46.46,0,0,0-.16.15,1,1,0,0,1-.74.55,2.49,2.49,0,0,1-1,.05,2.12,2.12,0,0,1-.63-.29,1.35,1.35,0,0,0-.26-.15.34.34,0,0,0-.35,0l-1.45.9-.53.33C3,30,3,30,3.1,30.18a4.1,4.1,0,0,0,1.34,1.14,2.81,2.81,0,0,0,.86.36,5.94,5.94,0,0,0,.71.08l.29,0Z" transform="translate(-0.01 -0.02)"/><path class="cls-3" d="M12.69,8.62l-.12-.44c0-.13-.06-.27-.11-.41s-.2-.33-.46-.28l-.7.18L9.89,8H9.83c-.13,0-.17.08-.16.22l0,.56,0,.49a.9.9,0,0,0,0,.16.21.21,0,0,0,.24.18c.58,0,1.16,0,1.74-.06a2.24,2.24,0,0,0,.92-.24h0Z" transform="translate(-0.01 -0.02)"/><path class="cls-3" d="M0,13.69c0,.17.09.35.13.53s.13.5.19.75a.25.25,0,0,0,0,.07L.87,15l1.73-.21A.47.47,0,0,0,3,14.52a.45.45,0,0,0,0-.2c0-.33,0-.65,0-1,0-.14-.08-.21-.23-.21l-1.68,0H.72a.25.25,0,0,1-.12,0,.54.54,0,0,0-.55,0l0,0Z" transform="translate(-0.01 -0.02)"/><path class="cls-3" d="M3.67,17.05c0-.18-.07-.35-.11-.52s-.09-.45-.15-.68a.18.18,0,0,0-.25-.15l-1.93.47-.52.16a.28.28,0,0,0-.2.35l.18,1,.12.58c.06.3.25.4.53.25l1.33-.73.73-.4.17-.11A.24.24,0,0,0,3.67,17.05Z" transform="translate(-0.01 -0.02)"/><path class="cls-3" d="M11.67,15.62c.21-.68.41-1.36.62-2l-.73-.13-2-.33a.23.23,0,0,0-.3.17L8.82,14.4c-.06.15,0,.21.11.26l2.71.95Z" transform="translate(-0.01 -0.02)"/><path class="cls-3" d="M8.45,15.39l-.33.7-.3.63a.26.26,0,0,0,.09.3l2.47,1.46,0,0c.28-.61.55-1.22.82-1.83Z" transform="translate(-0.01 -0.02)"/><path class="cls-3" d="M12.65,10.47l-2.87.11,0,.37A4.94,4.94,0,0,1,9.59,12c0,.13,0,.2.14.23a9.53,9.53,0,0,0,2.38.3h.07l.36,0C12.57,11.85,12.61,11.17,12.65,10.47Z" transform="translate(-0.01 -0.02)"/><path class="cls-3" d="M1.56,23.36l.09.87c0,.19,0,.37.05.56s.12.3.34.26l2.27-.41c.18,0,.25-.11.23-.29L4.42,23a.2.2,0,0,0-.23-.19L2.43,23l-.63.07C1.63,23.13,1.55,23.22,1.56,23.36Z" transform="translate(-0.01 -0.02)"/><path class="cls-3" d="M9.66,7l.46-.12,1.37-.35.39,0h0c.21,0,.27-.09.22-.29-.12-.48-.24-1-.37-1.43a.29.29,0,0,0-.33-.19,6.05,6.05,0,0,0-1.1.41l-1,.43c-.23.1-.25.15-.18.39s.15.6.23.9a.83.83,0,0,0,0,.15C9.44,7,9.51,7,9.66,7Z" transform="translate(-0.01 -0.02)"/><path class="cls-3" d="M10.45,21.87,9.76,22,8.4,22.2a.29.29,0,0,0-.28.36c0,.4.09.8.13,1.19,0,.17.07.21.25.21l2.33-.11h.07a.16.16,0,0,0,.15-.22L10.83,23l-.36-1.08Z" transform="translate(-0.01 -0.02)"/><path class="cls-3" d="M3.21,8.66a.26.26,0,0,0-.15-.26A3.15,3.15,0,0,0,2,8H1.88a1.36,1.36,0,0,1-.48-.12,1.34,1.34,0,0,0-.68-.14.14.14,0,0,0-.12.09,2.39,2.39,0,0,0-.14.43c-.06.3-.11.61-.16.91a.3.3,0,0,0,.23.36,4.42,4.42,0,0,0,.5.1l1.26.2a1.33,1.33,0,0,1,.34.16.58.58,0,0,0,.22.08.19.19,0,0,0,.21-.19c0-.32.08-.64.12-1C3.19,8.8,3.2,8.74,3.21,8.66Z" transform="translate(-0.01 -0.02)"/><path class="cls-3" d="M1.85,4.79a.23.23,0,0,0-.21.15c-.18.45-.38.9-.57,1.36a.12.12,0,0,0,0,.08.77.77,0,0,0,.36.28l1.39.56a1.64,1.64,0,0,1,.26.16,1.77,1.77,0,0,0,.17.12.15.15,0,0,0,.22-.06l0-.09L4,6.16a.22.22,0,0,0-.12-.32L2,4.84Z" transform="translate(-0.01 -0.02)"/><path class="cls-3" d="M2.93,11.56c0-.15,0-.31,0-.46a.24.24,0,0,0-.22-.26l-1.52-.3c-.17,0-.33-.09-.49-.13h0c-.33-.1-.53,0-.56.39l-.06,1a.17.17,0,0,0,0,.07c0,.22.11.31.33.32h.67c.05,0,.12,0,.15,0h.07l.87,0,.46,0h0c.19,0,.28-.07.28-.26v-.45Z" transform="translate(-0.01 -0.02)"/><path class="cls-3" d="M4.79,26.07l-.06-.59c0-.18-.11-.24-.29-.2L3,25.6l-1,.21-.11,0c-.06,0-.1.07-.09.14s0,.33.07.5a1.29,1.29,0,0,0,.06.25.4.4,0,0,0,.52.33l.95-.23,1.1-.28c.24-.07.3-.14.3-.39v-.09Z" transform="translate(-0.01 -0.02)"/><path class="cls-3" d="M3.66,10.65a1.61,1.61,0,0,1,0,.22c0,.15,0,.3-.05.45a2.43,2.43,0,0,0,0,.27c0,.22.16.28.34.16l.71-.47,1.17-.8A.39.39,0,0,0,6,10.17c0-.29.06-.58.08-.86S6,9,5.78,9.11l-1.4.72c-.18.1-.36.2-.55.29a.28.28,0,0,0-.17.26v.27Z" transform="translate(-0.01 -0.02)"/><path class="cls-3" d="M10.05,26l1.14-.05a.2.2,0,0,0,.19-.21c0-.29-.08-.57-.13-.85a.28.28,0,0,0-.1-.14.8.8,0,0,0-.43-.13,6.33,6.33,0,0,0-1.15.13l-.91.15c-.2,0-.2,0-.22.24a1.52,1.52,0,0,0,.05.6.34.34,0,0,0,.09.14.57.57,0,0,0,.36.13c.37,0,.74,0,1.11,0Z" transform="translate(-0.01 -0.02)"/><path class="cls-3" d="M11.39,28.25c0-.26,0-.51,0-.76s0-.36,0-.54-.08-.27-.28-.27H8.86a.22.22,0,0,0-.25.18,1.35,1.35,0,0,0,0,.29,2.09,2.09,0,0,0,0,.25.26.26,0,0,0,.21.21l.85.22,1.69.43Z" transform="translate(-0.01 -0.02)"/><path class="cls-3" d="M5.78,11.66,5,12.09l-1,.48a2,2,0,0,0-.19.12.53.53,0,0,0-.22.48c0,.27,0,.55.08.82a.22.22,0,0,0,.27.18,1.74,1.74,0,0,0,.65-.26l1.06-.69a.48.48,0,0,0,.24-.5,5.42,5.42,0,0,1,0-.57A1.19,1.19,0,0,0,5.78,11.66Z" transform="translate(-0.01 -0.02)"/><path class="cls-3" d="M9,9.84V9.33c0-.21,0-.42,0-.63a1,1,0,0,0-.32-.81L7.29,6.7l0,0C7.1,6.57,7,6.59,7,6.79s-.05.45-.07.68a3,3,0,0,0,0,.42A.37.37,0,0,0,7,8.2l1.11,1,.77.63Z" transform="translate(-0.01 -0.02)"/><path class="cls-3" d="M2.75,29.37l.68-.45a7.93,7.93,0,0,1,1.36-.77.45.45,0,0,0,.26-.54A.78.78,0,0,0,5,27.36c-.05-.14-.17-.19-.35-.15l-.74.21-1.45.42c-.29.08-.35.19-.26.48s.15.43.24.64A1.09,1.09,0,0,0,2.75,29.37Z" transform="translate(-0.01 -0.02)"/><path class="cls-3" d="M6.63,10.54a1.32,1.32,0,0,0,.45.55l1.37,1.08.15.1c.09,0,.16,0,.19-.08a3,3,0,0,0,.07-.32l.09-.6a.34.34,0,0,0-.12-.3L7.08,9.43l-.14-.08c-.08,0-.14,0-.17.06s0,.21,0,.31l0,.66A.64.64,0,0,1,6.63,10.54Z" transform="translate(-0.01 -0.02)"/><path class="cls-3" d="M6.26,6.48a1.51,1.51,0,0,0-.63.24c-.22.11-.43.24-.65.34a2.7,2.7,0,0,1-.43.12.16.16,0,0,0-.09.05,3.15,3.15,0,0,0-.41.82A2.32,2.32,0,0,0,4,8.43c0,.07,0,.14,0,.22a1.84,1.84,0,0,0-.05.25c0,.09,0,.13.1.13a.39.39,0,0,0,.16,0l1.9-1a.19.19,0,0,0,.12-.18C6.21,7.39,6.23,6.93,6.26,6.48Z" transform="translate(-0.01 -0.02)"/><path class="cls-3" d="M8.39,13.66A1,1,0,0,0,8,12.85l-.68-.54L6.93,12l-.17-.11c-.1,0-.16,0-.2.08a2.46,2.46,0,0,0-.07.29c0,.19,0,.39,0,.58a.57.57,0,0,0,.2.49l.68.6.5.45c.2.17.29.15.4-.08A1.65,1.65,0,0,0,8.39,13.66Z" transform="translate(-0.01 -0.02)"/><path class="cls-3" d="M5.75,15.22v-.68a.53.53,0,0,0,0-.12.13.13,0,0,0-.18-.07l-.09.05c-.43.32-.86.64-1.3.95a.38.38,0,0,0-.15.39c0,.21.07.41.1.62s0,.15.05.21.11.15.22.1l.08-.05,1.16-.88a.31.31,0,0,0,.12-.23c0-.1,0-.2,0-.29Z" transform="translate(-0.01 -0.02)"/><path class="cls-3" d="M7.21,16.47l.39-.75.11-.23a.22.22,0,0,0-.08-.33l-1-.63h0c-.16-.1-.24-.06-.26.12s-.06.58-.08.87a.28.28,0,0,0,.09.24Z" transform="translate(-0.01 -0.02)"/><path class="cls-3" d="M8.45,6.57c.05,0,.11-.05.09-.15a2.86,2.86,0,0,0-.8-1.66,1.54,1.54,0,0,0-.29-.21c-.14-.09-.25-.06-.31.1S7.05,5,7,5.13a.07.07,0,0,0,0,0,.8.8,0,0,0,.27.34,3.39,3.39,0,0,1,.86.87A.35.35,0,0,0,8.45,6.57Z" transform="translate(-0.01 -0.02)"/><path class="cls-3" d="M4.83,6.19l.27-.12,1.16-.73a.27.27,0,0,0,.14-.25V4.34A.68.68,0,0,0,6,4.46,3.58,3.58,0,0,0,4.83,6a.58.58,0,0,0,0,.19Z" transform="translate(-0.01 -0.02)"/><path class="cls-3" d="M6.87,24.72a.81.81,0,0,0,.84-.61,1.43,1.43,0,0,0,0-.71.23.23,0,0,0-.37-.15,1,1,0,0,0-.49,1.15A3.06,3.06,0,0,1,6.87,24.72Z" transform="translate(-0.01 -0.02)"/><path class="cls-3" d="M5.15,23.49v1a.11.11,0,0,0,0,.06l.5.26.09,0a.22.22,0,0,0,.3-.22,5.62,5.62,0,0,0,0-.58A.34.34,0,0,0,6,24,.25.25,0,0,0,6,23.83Z" transform="translate(-0.01 -0.02)"/><path class="cls-3" d="M7,26.05a2,2,0,0,0,0,.24c0,.1.09.14.19.11a1.13,1.13,0,0,0,.61-.4.55.55,0,0,0-.07-.69.22.22,0,0,0-.32,0c-.11.11-.22.22-.32.34A.5.5,0,0,0,7,26.05Z" transform="translate(-0.01 -0.02)"/><path class="cls-3" d="M6.38,28.46a1,1,0,0,0,.1-.54.7.7,0,0,0-.27-.45,3.15,3.15,0,0,0-.29-.22l0,0c-.13-.05-.19,0-.19.13a.28.28,0,0,0,0,.09l.18.6a.51.51,0,0,0,.33.34Z" transform="translate(-0.01 -0.02)"/><path class="cls-3" d="M7.41,28.26A1.15,1.15,0,0,0,8,27.39a.42.42,0,0,0-.13-.32.11.11,0,0,0-.08,0,.72.72,0,0,0-.56.69.19.19,0,0,0,0,.08Z" transform="translate(-0.01 -0.02)"/><path class="cls-3" d="M5.42,25.9a.7.7,0,0,0,.66.64.2.2,0,0,0,.22-.18A.5.5,0,0,0,6,25.8a2.6,2.6,0,0,0-.36-.13c-.19-.06-.25,0-.25.19Z" transform="translate(-0.01 -0.02)"/></g></g></g></svg>