<svg xmlns="http://www.w3.org/2000/svg" xmlns:xlink="http://www.w3.org/1999/xlink" viewBox="0 0 238.67 238.67"><defs><style>.cls-1{fill:none;}.cls-2{clip-path:url(#clip-path);}.cls-3{fill:#81dbd8;fill-rule:evenodd;}.cls-4{fill:#fff;}</style><clipPath id="clip-path"><rect class="cls-1" x="86.77" y="21.6" width="78.75" height="196.5"/></clipPath></defs><g id="Layer_2" data-name="Layer 2"><g id="Layer_2-2" data-name="Layer 2"><g class="cls-2"><path class="cls-3" d="M123.87,21.7c1,.24,2,.52,2.95.73a28.73,28.73,0,0,1,10.64,4.84,61.14,61.14,0,0,1,7.91,6.24A33.79,33.79,0,0,1,152,43.24a1.51,1.51,0,0,1-.71,2.26q-5.83,3.53-11.69,7c-1.56.94-2.14.78-3.11-.77a19.19,19.19,0,0,0-4.53-5.26,13.91,13.91,0,0,0-7.33-2.68,11.54,11.54,0,0,0-6.06.86,10.16,10.16,0,0,0-3.28,2.43c-.84.93-1.7,1.85-2.53,2.79a2,2,0,0,1-2.43.58c-.91-.36-1.8-.79-2.7-1.18-3.56-1.54-7.12-3.07-10.67-4.62a7.58,7.58,0,0,1-1.1-.56A.84.84,0,0,1,95.41,43c.41-1,.82-2,1.32-3a36.16,36.16,0,0,1,16.06-15.65c1.74-.9,3.58-1.62,5.38-2.43a3.12,3.12,0,0,0,.45-.29Z"/><path class="cls-3" d="M122.63,218.2l-2.35-.28A33.13,33.13,0,0,1,108,214a39.45,39.45,0,0,1-4.58-3.51c-1.17-.93-2.28-1.93-3.44-2.88a10,10,0,0,1-3.13-5.15,1.09,1.09,0,0,1,.83-1.52q7-2.31,14.09-4.59a2.79,2.79,0,0,1,2.28.12,2.36,2.36,0,0,1,1,.91,6.08,6.08,0,0,0,4.59,3.44,15.57,15.57,0,0,0,6.48.26,11.64,11.64,0,0,0,3.87-1.78,12.35,12.35,0,0,1,1.65-1,2.19,2.19,0,0,1,2.13.29l9,5.55c1.1.68,2.21,1.34,3.28,2.05s1.07,1,.34,2a25.37,25.37,0,0,1-8.31,7.07,18.69,18.69,0,0,1-5.33,2.26c-1.45.27-2.93.31-4.4.46l-1.79.19Z"/><path class="cls-3" d="M87,74.9c.25-.9.51-1.8.76-2.7s.41-1.71.67-2.54c.49-1.55,1.26-2.07,2.83-1.75s2.92.77,4.39,1.12c2.88.7,5.78,1.36,8.67,2l.37.09c.84.21,1.06.47,1,1.35,0,1.14-.13,2.29-.2,3.44s-.12,2-.19,3.06a5.28,5.28,0,0,1-.16,1,1.38,1.38,0,0,1-1.47,1.12c-3.59-.1-7.19-.14-10.77-.4a13.3,13.3,0,0,1-5.73-1.46.52.52,0,0,0-.18,0Z"/><path class="cls-3" d="M165.49,106.24c-.29,1.09-.58,2.18-.85,3.27-.39,1.54-.77,3.09-1.15,4.64,0,.14-.07.27-.12.45-1.09-.12-2.16-.23-3.23-.36-3.56-.42-7.13-.85-10.69-1.29a2.83,2.83,0,0,1-2.6-1.55,3,3,0,0,1-.26-1.25c0-2,.1-4,.18-6a1.24,1.24,0,0,1,1.42-1.32c3.48.06,7,.15,10.43.23.81,0,1.62,0,2.43,0a1.76,1.76,0,0,0,.75-.14,3.38,3.38,0,0,1,3.44.32,1.45,1.45,0,0,0,.25.12Z"/><path class="cls-3" d="M142.82,127c.22-1.08.44-2.16.67-3.23.3-1.39.6-2.78.92-4.16a1.18,1.18,0,0,1,1.59-1c4,1,7.93,1.95,11.89,2.94,1.09.28,2.16.63,3.24,1a1.71,1.71,0,0,1,1.22,2.18c-.34,2-.73,4.08-1.11,6.12-.22,1.19-.47,2.37-.7,3.56-.37,1.88-1.6,2.47-3.3,1.56q-4.11-2.23-8.2-4.49c-1.51-.82-3-1.64-4.52-2.48a9.36,9.36,0,0,1-1.07-.7A1.57,1.57,0,0,1,142.82,127Z"/><path class="cls-3" d="M93.33,118.22,89.51,105.5l4.55-.78,12.41-2a1.4,1.4,0,0,1,1.82,1q1.35,3.48,2.68,7c.36.92.21,1.3-.65,1.6l-16.77,5.89Z"/><path class="cls-3" d="M113.24,116.79c.7,1.45,1.39,2.86,2.07,4.28s1.23,2.63,1.83,4a1.5,1.5,0,0,1-.55,1.85l-15.24,9-.21.1L96,124.7Z"/><path class="cls-3" d="M87.32,86.32,105,87c.07.77.14,1.52.2,2.28a30.46,30.46,0,0,0,1,6.71,1,1,0,0,1-.84,1.41,60.84,60.84,0,0,1-14.77,1.88h-.43L88,99.17C87.76,94.9,87.54,90.65,87.32,86.32Z"/><path class="cls-3" d="M155.9,166.07c-.2,1.84-.38,3.62-.57,5.4-.11,1.14-.23,2.28-.33,3.42-.13,1.39-.73,1.87-2.09,1.63l-14-2.51c-1.12-.2-1.55-.72-1.45-1.85.24-2.7.5-5.4.76-8.1a1.22,1.22,0,0,1,1.4-1.16l10.9,1.21c1.29.14,2.59.27,3.88.42C155.42,164.65,155.92,165.18,155.9,166.07Z"/><path class="cls-3" d="M105.78,64.81l-2.85-.71c-2.83-.72-5.65-1.46-8.49-2.15a20.54,20.54,0,0,0-2.36-.28h-.33c-1.31,0-1.69-.52-1.37-1.8.75-3,1.52-5.89,2.29-8.83a1.86,1.86,0,0,1,2-1.19,47.28,47.28,0,0,1,6.81,2.55c2.16.85,4.29,1.76,6.43,2.66,1.44.62,1.52.92,1.1,2.43-.52,1.84-1,3.7-1.42,5.55a7.45,7.45,0,0,1-.27.92C107.11,64.59,106.72,64.83,105.78,64.81Z"/><path class="cls-3" d="M100.89,156.84c1.45.25,2.85.5,4.26.72l8.43,1.32a1.8,1.8,0,0,1,1.74,2.25q-.41,3.68-.84,7.37c-.12,1.06-.43,1.3-1.5,1.25l-14.42-.67-.43,0a1,1,0,0,1-.92-1.35c.41-1.3.88-2.59,1.32-3.89l2.25-6.7Z"/><path class="cls-3" d="M145.69,75.14a1.49,1.49,0,0,1,.88-1.57,19.26,19.26,0,0,1,6.91-2.74l.42-.06a8,8,0,0,0,3-.76,8.17,8.17,0,0,1,4.21-.84,1.06,1.06,0,0,1,.73.56,15,15,0,0,1,.87,2.66c.37,1.86.65,3.74.95,5.62a1.86,1.86,0,0,1-1.41,2.24c-1,.27-2,.41-3.08.59l-7.76,1.27a6.09,6.09,0,0,0-2.15,1,3.16,3.16,0,0,1-1.32.46,1.23,1.23,0,0,1-1.34-1.16q-.39-3-.75-6C145.78,76,145.75,75.65,145.69,75.14Z"/><path class="cls-3" d="M154.11,51.25a1.29,1.29,0,0,1,1.25.87c1.15,2.82,2.35,5.62,3.52,8.43a.67.67,0,0,1-.08.53,4.9,4.9,0,0,1-2.25,1.68c-2.89,1.12-5.75,2.3-8.61,3.5a10.47,10.47,0,0,0-1.61,1c-.35.23-.67.54-1.05.74a.94.94,0,0,1-1.35-.39,4.07,4.07,0,0,1-.28-.55q-1.49-3.69-3-7.36c-.41-1-.23-1.48.74-2q5.91-3.1,11.83-6.18A4.7,4.7,0,0,1,154.11,51.25Z"/><path class="cls-3" d="M147.43,93.08c0-.94,0-1.88,0-2.82a1.57,1.57,0,0,1,1.36-1.64c3.15-.61,6.3-1.2,9.45-1.84,1-.21,2-.53,3-.8l.14,0c2.08-.65,3.31.21,3.44,2.4s.25,4.24.38,6.35a3.85,3.85,0,0,1,0,.48,1.89,1.89,0,0,1-2,2c-1.38.06-2.77,0-4.15,0-.33,0-.77-.26-1,.28,0,.06-.26,0-.4,0-1.79-.09-3.58-.22-5.37-.26-1,0-1.9.14-2.85.21l-.28,0c-1.18.08-1.73-.45-1.71-1.62,0-.46,0-.92,0-1.38V93.08Z"/><path class="cls-3" d="M135.88,182.83c.13-1.21.25-2.44.41-3.65s.68-1.48,1.76-1.25c3,.64,6,1.33,9,2,2.08.45,4.17.86,6.26,1.3a5.35,5.35,0,0,1,.68.21.79.79,0,0,1,.55.86c-.12,1-.27,2-.43,3.07a15.64,15.64,0,0,1-.35,1.54c-.5,1.75-1.47,2.4-3.25,2-2-.41-3.93-.92-5.89-1.41-2.26-.57-4.52-1.17-6.78-1.75-1.47-.37-1.84-.86-1.84-2.39v-.53Z"/><path class="cls-3" d="M142.88,87.48c0,.45,0,.9,0,1.34.08.94.21,1.87.29,2.81a9.74,9.74,0,0,1,0,1.62c-.13,1.36-1,1.76-2.11,1-1.48-1-3-1.94-4.42-2.93-2.4-1.63-4.79-3.3-7.21-4.92a2.56,2.56,0,0,1-1.18-1.93c-.18-1.77-.35-3.55-.46-5.33-.08-1.17.87-1.74,1.93-1.2l8.66,4.43c1.14.59,2.26,1.23,3.42,1.78a1.78,1.78,0,0,1,1,1.64c0,.55,0,1.11,0,1.67Z"/><path class="cls-3" d="M103.38,182.05l-7-.26a1.31,1.31,0,0,1-1.21-1.34q.34-2.62.81-5.24a1.6,1.6,0,0,1,.64-.88,5.19,5.19,0,0,1,2.66-.77c2.42-.14,4.74.48,7.1.8,1.88.24,3.74.58,5.6.9,1.26.21,1.29.24,1.4,1.49a10.26,10.26,0,0,1-.33,3.74,1.82,1.82,0,0,1-.56.85,3.37,3.37,0,0,1-2.2.78h-6.87Z"/><path class="cls-3" d="M95.07,196.33c-.08-1.62-.18-3.18-.21-4.74,0-1.1,0-2.2.08-3.3.07-1.26.5-1.68,1.75-1.72,1.09,0,2.19,0,3.29,0l10.73-.07a1.38,1.38,0,0,1,1.59,1.11,7.48,7.48,0,0,1,.21,1.78c0,.53,0,1.05,0,1.58a1.67,1.67,0,0,1-1.3,1.3q-2.62.71-5.26,1.37l-10.48,2.65A3.73,3.73,0,0,1,95.07,196.33Z"/><path class="cls-3" d="M129.76,93.73l5.17,2.62c2,1,3.94,2,5.9,3a8.9,8.9,0,0,1,1.19.71,3.13,3.13,0,0,1,1.34,3c-.15,1.68-.29,3.37-.48,5a1.32,1.32,0,0,1-1.65,1.14,10.93,10.93,0,0,1-4-1.64c-2.19-1.43-4.39-2.84-6.58-4.25a3.08,3.08,0,0,1-1.46-3.1,34.81,34.81,0,0,0,0-3.54A7.11,7.11,0,0,1,129.76,93.73Z"/><path class="cls-3" d="M110,82.47c0-1.14,0-2.15,0-3.16,0-1.31.12-2.62,0-3.91a6,6,0,0,1,2-5c2.76-2.49,5.56-4.91,8.34-7.36.06-.06.13-.1.19-.15,1-.67,1.51-.5,1.69.68.22,1.4.34,2.82.48,4.23.09.86.15,1.72.19,2.58a2.29,2.29,0,0,1-.8,1.92c-2.27,2-4.54,4-6.84,5.95-1.56,1.33-3.18,2.59-4.78,3.88C110.46,82.22,110.32,82.29,110,82.47Z"/><path class="cls-3" d="M148.51,203.24l-4.2-2.79a52.07,52.07,0,0,0-8.41-4.78c-1.34-.58-1.84-1.66-1.61-3.32a7.24,7.24,0,0,1,.4-1.52,1.61,1.61,0,0,1,2.17-1c1.55.4,3.09.86,4.63,1.3l8.93,2.58c1.8.52,2.19,1.21,1.6,3-.44,1.33-.91,2.66-1.46,3.94A6.51,6.51,0,0,1,148.51,203.24Z"/><path class="cls-3" d="M124.5,86.81a8.37,8.37,0,0,1-2.76,3.38c-2.85,2.19-5.65,4.45-8.48,6.68a5.54,5.54,0,0,1-.92.59c-.57.27-1,.13-1.16-.48a13,13,0,0,1-.42-2c-.21-1.25-.4-2.49-.56-3.74a2,2,0,0,1,.69-1.84l10.86-9.51a4,4,0,0,1,.83-.54c.52-.25.88-.14,1,.42a10,10,0,0,1,.31,1.88c.1,1.36.14,2.74.24,4.1A4.93,4.93,0,0,0,124.5,86.81Z"/><path class="cls-3" d="M126.82,61.66a10,10,0,0,1,3.9,1.47c1.32.73,2.63,1.5,4,2.12a17.78,17.78,0,0,0,2.64.75,1,1,0,0,1,.55.32,19.13,19.13,0,0,1,2.6,5.09,22.18,22.18,0,0,1,.35,2.31c.07.45.16.9.25,1.35s.24,1,.31,1.55-.12.8-.66.83a2,2,0,0,1-1-.16c-3.93-2-7.85-4.05-11.77-6.09a1.27,1.27,0,0,1-.74-1.14C127.14,67.27,127,64.49,126.82,61.66Z"/><path class="cls-3" d="M113.65,106.07a6.06,6.06,0,0,1,2.51-5c1.39-1.11,2.81-2.18,4.19-3.31.81-.67,1.54-1.43,2.33-2.12a4.55,4.55,0,0,1,1-.67c.62-.29,1-.15,1.25.5a8,8,0,0,1,.4,1.76c.15,1.2.27,2.41.36,3.62a3.67,3.67,0,0,1-1.29,3c-1.37,1.27-2.78,2.48-4.17,3.72-1,.92-2.05,1.86-3.1,2.77-1.23,1.07-1.79,1-2.48-.51A9.54,9.54,0,0,1,113.65,106.07Z"/><path class="cls-3" d="M130,115.69c0-1.38,0-2.77,0-4.16a2.13,2.13,0,0,1,.19-.73.78.78,0,0,1,1.09-.46,2.59,2.59,0,0,1,.59.32c2.66,2,5.31,4,8,5.89a2.32,2.32,0,0,1,1,2.37c-.17,1.3-.44,2.58-.67,3.87a10.11,10.11,0,0,1-.26,1.31.91.91,0,0,1-1.39.6,2.92,2.92,0,0,1-.48-.29c-2.39-1.82-4.76-3.64-7.15-5.44a1.93,1.93,0,0,1-.78-1.46c-.06-.61-.09-1.21-.14-1.81Z"/><path class="cls-3" d="M121,123.48l-2.42-4.69c-.24-.47-.49-.93-.72-1.4a1.38,1.38,0,0,1,.56-2l6-3.86.08,0c1-.58,1.49-.35,1.61.78.19,1.79.35,3.59.5,5.38a1.63,1.63,0,0,1-.6,1.44C124.28,120.48,122.65,122,121,123.48Z"/><path class="cls-3" d="M113.24,62.26c-.31,0-.63-.35-.51-.93.8-3.83,1.86-7.55,4.91-10.29a11.16,11.16,0,0,1,1.8-1.33,1.17,1.17,0,0,1,1.92.62c.38,1,.59,2,.87,3a.45.45,0,0,1,0,.28,5.22,5.22,0,0,1-1.66,2.1,20.58,20.58,0,0,0-5.33,5.36A2.28,2.28,0,0,1,113.24,62.26Z"/><path class="cls-3" d="M135.68,59.9a14.05,14.05,0,0,1-1.67-.77c-2.41-1.49-4.79-3-7.2-4.51a1.63,1.63,0,0,1-.87-1.52c0-1.44,0-2.87,0-4.31,0-.11,0-.22,0-.34a4.15,4.15,0,0,1,2.52.71,22.15,22.15,0,0,1,7.19,9.48,4.39,4.39,0,0,1,.15,1.16A.71.71,0,0,1,135.68,59.9Z"/><path class="cls-3" d="M123.06,174.47a5.14,5.14,0,0,1-5.24-3.75,9.37,9.37,0,0,1,.18-4.4,1.44,1.44,0,0,1,2.33-1c2.47,1.51,4,3.94,3,7.11A12.66,12.66,0,0,0,123.06,174.47Z"/><path class="cls-3" d="M133.68,166.87c0,2.18,0,4.25,0,6.32a.53.53,0,0,1-.22.37c-1,.54-2,1.06-3,1.58a3.16,3.16,0,0,1-.59.2c-1.06.23-1.81-.25-1.85-1.33s.08-2.41.13-3.62a1.51,1.51,0,0,1,.08-.61c.13-.29.27-.69.51-.8C130.32,168.25,132,167.59,133.68,166.87Z"/><path class="cls-3" d="M122,182.69a15.05,15.05,0,0,1-.22,1.5.83.83,0,0,1-1.15.69,7,7,0,0,1-3.76-2.47,3.37,3.37,0,0,1,.43-4.26,1.35,1.35,0,0,1,2,0c.68.67,1.32,1.38,1.94,2.1A3.09,3.09,0,0,1,122,182.69Z"/><path class="cls-3" d="M126.05,197.61a6.75,6.75,0,0,1-.62-3.34,4.77,4.77,0,0,1,1.68-2.82c.57-.48,1.2-.88,1.8-1.32a1.68,1.68,0,0,1,.3-.15c.8-.28,1.21,0,1.19.85a1.86,1.86,0,0,1-.07.52c-.37,1.25-.76,2.49-1.14,3.74a3,3,0,0,1-2,2.09C126.83,197.3,126.46,197.45,126.05,197.61Z"/><path class="cls-3" d="M119.7,196.4c-2.28-1.12-3.26-3.1-3.78-5.39a2.55,2.55,0,0,1,.82-2,.81.81,0,0,1,.51,0,4.47,4.47,0,0,1,3.41,4.26,1.28,1.28,0,0,1,0,.52C120.31,194.67,120,195.53,119.7,196.4Z"/><path class="cls-3" d="M132,181.76c.24,2-2.26,4-4,4a1.33,1.33,0,0,1-1.4-1.16,3,3,0,0,1,1.7-3.44,17.45,17.45,0,0,1,2.23-.81c1.15-.34,1.51,0,1.51,1.18Z"/></g><path class="cls-4" d="M101.58,135.88c.39-4.7,4.58-8.57,9.64-9.8,8.49-2.07,14,1.93,15.61,11.49,4.2-3.25,7.2-6.28,8.47-6.32.26,0,.53.23.56.84.07,1.1-7.38,5.28-8.88,8.44-1.79,3.79-2.48,13.36-9.57,17.18-9.11,4.91-15.54-3.7-17.15-6.62s-3.4-12.42-3.18-12.79C97.63,137.34,100.35,136.41,101.58,135.88Zm4.57,12c2.46,5.37,7.63,6.9,11.14,5.26,2.46-1.15,4.38-3.81,4.53-8.32a26.67,26.67,0,0,1-6,3.88c-3.25,1.38-6.8,1.34-10.39-3.37A10.14,10.14,0,0,0,106.15,147.84Zm15-9.07c-1.71-7.16-6.39-9.36-10.29-8.26a7.51,7.51,0,0,0-5,4.73l.14.34a7.69,7.69,0,0,0,0,5.39c1.26,3,4.23,5.5,9.53,3.52a32.78,32.78,0,0,0,6.08-3.26A18.18,18.18,0,0,0,121.19,138.77Z"/><path class="cls-4" d="M128.44,112c-.24-2,4.37-4.1,4.85-4.24.32,0,2.26.06,4.05.26s3.55.58,3.55.94A80.18,80.18,0,0,0,137.23,137c.18,4.45.9,7.57,2.3,7.46,2.27-.19,5.46-5.12,5.69-5.11.47,0,.92.15.88.77-.15,2.39-2.38,9.22-8.25,10.16-4.08.66-5.91.38-7.14-9-.3-2.33.42-20.3,0-27.08C130.64,113.42,128.48,112.36,128.44,112Z"/><path class="cls-4" d="M171.82,136c-1.3,3.22-5.82,7.52-5.82,7.52a51.55,51.55,0,0,0-12.95-1.61c.42,3.84,3.28,5.13,6.36,5.67,5.74,1,11.59.14,13.5-1.59.12-.24,1.61.24,2.38.59.33.15.55.25.53.29a38.9,38.9,0,0,1-20.17,3.22c-5.93-.58-11.14-3.16-10.73-11.66.12-2.35,6.08-15,18.91-10.65C168.77,129.44,173.08,132.83,171.82,136Zm-11.68,5.35c.35.08,2.06-3.92,3.42-8.87a2.82,2.82,0,0,0-2-3.62c-2.78-.85-7.06,1.67-8.36,10a4.9,4.9,0,0,0-.07,1.89A46.38,46.38,0,0,1,160.14,141.32Z"/><path class="cls-4" d="M168.67,151.51a1.15,1.15,0,0,1-2.29,0,1.15,1.15,0,0,1,2.29,0Zm-.74,3.1c.3,0,.53,0,.53.18a.64.64,0,0,1-.14.3,15.91,15.91,0,0,0-.44,4.1c0,2.66.32,3.5.76,3.5.63,0,.65-1.23,1.32-1.23,0,.3-1.2,3.45-2.17,3.45s-1.16-2.18-1.16-4.12c0-3.84.05-3.15.05-5.9,0-.07,0-.17.07-.17S167.46,154.61,167.93,154.61Z"/><path class="cls-4" d="M169.59,154.68c0-.16.76-.3,1.3-.3.25,0,.44,0,.44.11a48.68,48.68,0,0,0-.51,5c.51-2.25,1.73-4.4,2.22-4.4.09-.11.35-.21,1-.21.32,0,.62,0,.62.21,0-.14-.41.84-.41,3.61,0,4,.32,4.47.76,4.47s.56-1.34.74-1.34.3.16.3.16-.81,3-1.9,3-1.38-3-1.38-4.16c0-.84.09-3.43.23-4.87-.7.79-1.53,4.7-1.53,7.09a4.74,4.74,0,0,0,.18,1.43c0,.19-.37.4-.83.4-1,0-1.27-1.93-1.27-4,0-2,.21-4.1.21-5.07v-.33C169.68,154.89,169.59,154.93,169.59,154.68Z"/><path class="cls-4" d="M178.59,154.72c.17-.67,0-.71.54-.71.3,0,.67.09.67.16a16.73,16.73,0,0,0-.4,2.66,23.26,23.26,0,0,0,.24,2.57c0,.19-.58.42-.7.42s-.92,0-.92-1a10.68,10.68,0,0,1,.23-2.34c0-.88-.12-1.64-.54-1.64s-1.18,1.18-1.18,4.49c0,2.92,1,3.8,2.06,3.8a2.45,2.45,0,0,0,2.37-2.29s.16-.07.23-.07.11,0,.11.18c-.34,2.27-1.9,3.91-3.45,3.91s-2.75-1.39-2.75-5c0-3.94,1.34-5.65,2.73-5.65A.77.77,0,0,1,178.59,154.72Z"/><path class="cls-4" d="M181.37,163.89a1,1,0,0,1-1-.79c0-1.18,1.5-2.08,2.52-2.08.44,0,1.07,0,1.07,1S182.39,163.89,181.37,163.89Z"/><path class="cls-4" d="M102.13,94.35c.48-5.82,2.26-17.43,2.44-18.31s5.83.17,10,1.57c2.6.88,4.57,2,4.35,2.68.29-.94-7.63,2.7-12.55,23.5-2.33,9.86-3.08,21-5.05,30.35-.22,1-2.13,1.34-4.14,1.14-3.69-.37-8.49-2.24-8.09-4.83.58-3.76,2.39-11.8,3.91-19.94,2.5-13.43.72-32.1-14.83-35.2-21.33-4.24-39.39,18.94-34.81,39.84,3.63,16.55,19.7,22.64,34.13,26.67,7,2,25.52,6.71,24.7,10-1.15,4.61-18,13.87-27.62,16.89C60.91,173,55.3,162.26,54.15,156.37c-.84-4.34.6-6.27,1.91-6.53.15,0,7,14.53,20.44,12,4-.77,13.18-6.19,12.56-8.76-3.15-13-50.66-2.47-59.84-32.24C19.56,89.49,48,63.52,79.14,70.48,90.78,73.09,101.81,81.5,102.13,94.35Z"/><path class="cls-4" d="M119.33,238.67A119.34,119.34,0,1,1,238.67,119.33,119.47,119.47,0,0,1,119.33,238.67ZM119.33,2A117.34,117.34,0,1,0,236.67,119.33,117.47,117.47,0,0,0,119.33,2Z"/></g></g></svg>